<?xml version="1.0" encoding="UTF-8"?>
<svg width="23px" height="17px" viewBox="0 0 23 17" version="1.1" xmlns="http://www.w3.org/2000/svg" xmlns:xlink="http://www.w3.org/1999/xlink">
    <!-- Generator: Sketch 42 (36781) - http://www.bohemiancoding.com/sketch -->
    <title>ar</title>
    <desc>Created with Sketch.</desc>
    <defs>
        <linearGradient x1="50%" y1="0%" x2="50%" y2="100%" id="linearGradient-1">
            <stop stop-color="#FFFFFF" offset="0%"></stop>
            <stop stop-color="#F0F0F0" offset="100%"></stop>
        </linearGradient>
        <rect id="path-2" x="1" y="1" width="21" height="15" rx="1.5"></rect>
        <filter x="-50%" y="-50%" width="200%" height="200%" filterUnits="objectBoundingBox" id="filter-4">
            <feOffset dx="0" dy="0.5" in="SourceAlpha" result="shadowOffsetOuter1"></feOffset>
            <feGaussianBlur stdDeviation="0.5" in="shadowOffsetOuter1" result="shadowBlurOuter1"></feGaussianBlur>
            <feColorMatrix values="0 0 0 0 0   0 0 0 0 0   0 0 0 0 0  0 0 0 0.16 0" type="matrix" in="shadowBlurOuter1"></feColorMatrix>
        </filter>
        <linearGradient x1="50%" y1="0%" x2="50%" y2="100%" id="linearGradient-5">
            <stop stop-color="#128C4A" offset="0%"></stop>
            <stop stop-color="#0B6C38" offset="100%"></stop>
        </linearGradient>
        <path d="M6,10 L14,10 L14,9.00783157 C14,8.72736394 14.1928101,8.59640503 14.453186,8.72659302 L15,9 L15,10 L16.4953156,10 C16.7740451,10 17,10.214035 17,10.5046844 L17,11 C17,11.5522847 16.5573397,12 16.0010434,12 L14.495389,12 C14.2217932,12 14,11.7680664 14,11.5 L14,11 L7.50342274,11 C7.22539004,11 6.84375,10.84375 6.65024853,10.6502485 L6,10 Z" id="path-6"></path>
        <filter x="-50%" y="-50%" width="200%" height="200%" filterUnits="objectBoundingBox" id="filter-7">
            <feOffset dx="0" dy="0.5" in="SourceAlpha" result="shadowOffsetOuter1"></feOffset>
            <feColorMatrix values="0 0 0 0 0   0 0 0 0 0   0 0 0 0 0  0 0 0 0.06 0" type="matrix" in="shadowOffsetOuter1"></feColorMatrix>
        </filter>
        <path d="M6,7.25234222 C6,7.11297746 6.078125,6.921875 6.18051147,6.81948853 L6.31948853,6.68051147 C6.41918226,6.58081774 6.421875,6.421875 6.31948853,6.31948853 L6.18051147,6.18051147 C6.08081774,6.08081774 6,5.89298248 6,5.74765778 L6,5.25234222 C6,5.11297746 6.10701752,5 6.25234222,5 L6.74765778,5 C6.88702254,5 7,5.10701752 7,5.25234222 L7,5.74765778 C7,5.88702254 7.04614258,5.90771484 7.1159668,5.76806641 L7.3840332,5.23193359 C7.4480799,5.10384021 7.61770248,5 7.74769449,5 L8.75230551,5 C8.8891034,5 9,5.1159668 9,5.25 L9,5.25 C9,5.38807119 8.89298248,5.5 8.74765778,5.5 L8.25234222,5.5 C8.11297746,5.5 8,5.6159668 8,5.75 L8,5.75 C8,5.88807119 8.10701752,6 8.25234222,6 L8.74765778,6 C8.88702254,6 9,6.10752869 9,6.24523926 L9,7.75476074 C9,7.89020264 8.89298248,8 8.74765778,8 L8.25234222,8 C8.11297746,8 8,7.89298248 8,7.74765778 L8,7.25234222 C8,7.11297746 8.1159668,7 8.25,7 L8.25,7 C8.38807119,7 8.5,6.8840332 8.5,6.75 L8.5,6.75 C8.5,6.61192881 8.39298248,6.5 8.24765778,6.5 L7.75234222,6.5 C7.61297746,6.5 7.5,6.61770248 7.5,6.74769449 L7.5,7.75230551 C7.5,7.8891034 7.3840332,8 7.25,8 L7.25,8 C7.11192881,8 7,7.89298248 7,7.74765778 L7,7.25234222 C7,7.11297746 6.8840332,7 6.75,7 L6.75,7 C6.61192881,7 6.5,7.10701752 6.5,7.25234222 L6.5,7.74765778 C6.5,7.88702254 6.3840332,8 6.25,8 L6.25,8 C6.11192881,8 6,7.89298248 6,7.74765778 L6,7.25234222 Z" id="path-8"></path>
        <filter x="-50%" y="-50%" width="200%" height="200%" filterUnits="objectBoundingBox" id="filter-9">
            <feOffset dx="0" dy="0.5" in="SourceAlpha" result="shadowOffsetOuter1"></feOffset>
            <feColorMatrix values="0 0 0 0 0   0 0 0 0 0   0 0 0 0 0  0 0 0 0.06 0" type="matrix" in="shadowOffsetOuter1"></feColorMatrix>
        </filter>
        <path d="M14,7.25234222 C14,7.11297746 14.078125,6.921875 14.1805115,6.81948853 L14.3194885,6.68051147 C14.4191823,6.58081774 14.421875,6.421875 14.3194885,6.31948853 L14.1805115,6.18051147 C14.0808177,6.08081774 14,5.89298248 14,5.74765778 L14,5.25234222 C14,5.11297746 14.1070175,5 14.2523422,5 L14.7476578,5 C14.8870225,5 15,5.10701752 15,5.25234222 L15,5.74765778 C15,5.88702254 15.0461426,5.90771484 15.1159668,5.76806641 L15.3840332,5.23193359 C15.4480799,5.10384021 15.6177025,5 15.7476945,5 L16.7523055,5 C16.8891034,5 17,5.1159668 17,5.25 L17,5.25 C17,5.38807119 16.8929825,5.5 16.7476578,5.5 L16.2523422,5.5 C16.1129775,5.5 16,5.6159668 16,5.75 L16,5.75 C16,5.88807119 16.1070175,6 16.2523422,6 L16.7476578,6 C16.8870225,6 17,6.10752869 17,6.24523926 L17,7.75476074 C17,7.89020264 16.8929825,8 16.7476578,8 L16.2523422,8 C16.1129775,8 16,7.89298248 16,7.74765778 L16,7.25234222 C16,7.11297746 16.1159668,7 16.25,7 L16.25,7 C16.3880712,7 16.5,6.8840332 16.5,6.75 L16.5,6.75 C16.5,6.61192881 16.3929825,6.5 16.2476578,6.5 L15.7523422,6.5 C15.6129775,6.5 15.5,6.61770248 15.5,6.74769449 L15.5,7.75230551 C15.5,7.8891034 15.3840332,8 15.25,8 L15.25,8 C15.1119288,8 15,7.89298248 15,7.74765778 L15,7.25234222 C15,7.11297746 14.8840332,7 14.75,7 L14.75,7 C14.6119288,7 14.5,7.10701752 14.5,7.25234222 L14.5,7.74765778 C14.5,7.88702254 14.3840332,8 14.25,8 L14.25,8 C14.1119288,8 14,7.89298248 14,7.74765778 L14,7.25234222 Z" id="path-10"></path>
        <filter x="-50%" y="-50%" width="200%" height="200%" filterUnits="objectBoundingBox" id="filter-11">
            <feOffset dx="0" dy="0.5" in="SourceAlpha" result="shadowOffsetOuter1"></feOffset>
            <feColorMatrix values="0 0 0 0 0   0 0 0 0 0   0 0 0 0 0  0 0 0 0.06 0" type="matrix" in="shadowOffsetOuter1"></feColorMatrix>
        </filter>
        <path d="M13,5.74765778 C13,5.88702254 12.921875,6.078125 12.8194885,6.18051147 L12.6805115,6.31948853 C12.5808177,6.41918226 12.578125,6.578125 12.6805115,6.68051147 L12.8194885,6.81948853 C12.9191823,6.91918226 13,7.10701752 13,7.25234222 L13,7.74765778 C13,7.88702254 12.8929825,8 12.7476578,8 L12.2523422,8 C12.1129775,8 12,7.89298248 12,7.74765778 L12,7.25234222 C12,7.11297746 11.9538574,7.09228516 11.8840332,7.23193359 L11.6159668,7.76806641 C11.5519201,7.89615979 11.3822975,8 11.2523055,8 L10.2476945,8 C10.1108966,8 10,7.8840332 10,7.75 L10,7.75 C10,7.61192881 10.1070175,7.5 10.2523422,7.5 L10.7476578,7.5 C10.8870225,7.5 11,7.3840332 11,7.25 L11,7.25 C11,7.11192881 10.8929825,7 10.7476578,7 L10.2523422,7 C10.1129775,7 10,6.89247131 10,6.75476074 L10,5.24523926 C10,5.10979736 10.1070175,5 10.2523422,5 L10.7476578,5 C10.8870225,5 11,5.10701752 11,5.25234222 L11,5.74765778 C11,5.88702254 10.8840332,6 10.75,6 L10.75,6 C10.6119288,6 10.5,6.1159668 10.5,6.25 L10.5,6.25 C10.5,6.38807119 10.6070175,6.5 10.7523422,6.5 L11.2476578,6.5 C11.3870225,6.5 11.5,6.38229752 11.5,6.25230551 L11.5,5.24769449 C11.5,5.1108966 11.6159668,5 11.75,5 L11.75,5 C11.8880712,5 12,5.10701752 12,5.25234222 L12,5.74765778 C12,5.88702254 12.1159668,6 12.25,6 L12.25,6 C12.3880712,6 12.5,5.89298248 12.5,5.74765778 L12.5,5.25234222 C12.5,5.11297746 12.6159668,5 12.75,5 L12.75,5 C12.8880712,5 13,5.10701752 13,5.25234222 L13,5.74765778 L13,5.74765778 Z" id="path-12"></path>
        <filter x="-50%" y="-50%" width="200%" height="200%" filterUnits="objectBoundingBox" id="filter-13">
            <feOffset dx="0" dy="0.5" in="SourceAlpha" result="shadowOffsetOuter1"></feOffset>
            <feColorMatrix values="0 0 0 0 0   0 0 0 0 0   0 0 0 0 0  0 0 0 0.06 0" type="matrix" in="shadowOffsetOuter1"></feColorMatrix>
        </filter>
        <rect id="path-14" x="1" y="1" width="21" height="15" rx="1.5"></rect>
        <filter x="-50%" y="-50%" width="200%" height="200%" filterUnits="objectBoundingBox" id="filter-15">
            <feOffset dx="0" dy="-0.5" in="SourceAlpha" result="shadowOffsetInner1"></feOffset>
            <feComposite in="shadowOffsetInner1" in2="SourceAlpha" operator="arithmetic" k2="-1" k3="1" result="shadowInnerInner1"></feComposite>
            <feColorMatrix values="0 0 0 0 0   0 0 0 0 0   0 0 0 0 0  0 0 0 0.04 0" type="matrix" in="shadowInnerInner1" result="shadowMatrixInner1"></feColorMatrix>
            <feOffset dx="0" dy="0.5" in="SourceAlpha" result="shadowOffsetInner2"></feOffset>
            <feComposite in="shadowOffsetInner2" in2="SourceAlpha" operator="arithmetic" k2="-1" k3="1" result="shadowInnerInner2"></feComposite>
            <feColorMatrix values="0 0 0 0 1   0 0 0 0 1   0 0 0 0 1  0 0 0 0.12 0" type="matrix" in="shadowInnerInner2" result="shadowMatrixInner2"></feColorMatrix>
            <feMerge>
                <feMergeNode in="shadowMatrixInner1"></feMergeNode>
                <feMergeNode in="shadowMatrixInner2"></feMergeNode>
            </feMerge>
        </filter>
    </defs>
    <g id="Page-1" stroke="none" stroke-width="1" fill="none" fill-rule="evenodd">
        <g id="ar">
            <mask id="mask-3" fill="white">
                <use xlink:href="#path-2"></use>
            </mask>
            <g id="Mask">
                <use fill="black" fill-opacity="1" filter="url(#filter-4)" xlink:href="#path-2"></use>
                <use fill="url(#linearGradient-1)" fill-rule="evenodd" xlink:href="#path-2"></use>
            </g>
            <rect id="Mask-Copy" fill="url(#linearGradient-5)" mask="url(#mask-3)" x="1" y="1" width="21" height="15"></rect>
            <g id="Rectangle-455" mask="url(#mask-3)">
                <use fill="black" fill-opacity="1" filter="url(#filter-7)" xlink:href="#path-6"></use>
                <use fill="url(#linearGradient-1)" fill-rule="evenodd" xlink:href="#path-6"></use>
            </g>
            <g id="Rectangle-456" mask="url(#mask-3)">
                <use fill="black" fill-opacity="1" filter="url(#filter-9)" xlink:href="#path-8"></use>
                <use fill="url(#linearGradient-1)" fill-rule="evenodd" xlink:href="#path-8"></use>
            </g>
            <g id="Rectangle-456" mask="url(#mask-3)">
                <use fill="black" fill-opacity="1" filter="url(#filter-11)" xlink:href="#path-10"></use>
                <use fill="url(#linearGradient-1)" fill-rule="evenodd" xlink:href="#path-10"></use>
            </g>
            <g id="Rectangle-456" mask="url(#mask-3)">
                <use fill="black" fill-opacity="1" filter="url(#filter-13)" xlink:href="#path-12"></use>
                <use fill="url(#linearGradient-1)" fill-rule="evenodd" xlink:href="#path-12"></use>
            </g>
            <g id="Depth" mask="url(#mask-3)" fill-opacity="1" fill="black">
                <use filter="url(#filter-15)" xlink:href="#path-14"></use>
            </g>
        </g>
    </g>
</svg>