<?xml version="1.0" encoding="UTF-8"?>
<svg width="23px" height="17px" viewBox="0 0 23 17" version="1.1" xmlns="http://www.w3.org/2000/svg" xmlns:xlink="http://www.w3.org/1999/xlink">
    <!-- Generator: Sketch 42 (36781) - http://www.bohemiancoding.com/sketch -->
    <title>en</title>
    <desc>Created with Sketch.</desc>
    <defs>
        <linearGradient x1="50%" y1="0%" x2="50%" y2="100%" id="linearGradient-1">
            <stop stop-color="#FFFFFF" offset="0%"></stop>
            <stop stop-color="#F0F0F0" offset="100%"></stop>
        </linearGradient>
        <rect id="path-2" x="1" y="1" width="21" height="15" rx="1.5"></rect>
        <filter x="-50%" y="-50%" width="200%" height="200%" filterUnits="objectBoundingBox" id="filter-4">
            <feOffset dx="0" dy="0.5" in="SourceAlpha" result="shadowOffsetOuter1"></feOffset>
            <feGaussianBlur stdDeviation="0.5" in="shadowOffsetOuter1" result="shadowBlurOuter1"></feGaussianBlur>
            <feColorMatrix values="0 0 0 0 0   0 0 0 0 0   0 0 0 0 0  0 0 0 0.16 0" type="matrix" in="shadowBlurOuter1"></feColorMatrix>
        </filter>
        <linearGradient x1="50%" y1="0%" x2="50%" y2="100%" id="linearGradient-5">
            <stop stop-color="#D02F44" offset="0%"></stop>
            <stop stop-color="#B12537" offset="100%"></stop>
        </linearGradient>
        <linearGradient x1="50%" y1="0%" x2="50%" y2="100%" id="linearGradient-6">
            <stop stop-color="#46467F" offset="0%"></stop>
            <stop stop-color="#3C3C6D" offset="100%"></stop>
        </linearGradient>
        <path d="M2.5,3 C2.22385763,3 2,2.77614237 2,2.5 C2,2.22385763 2.22385763,2 2.5,2 C2.77614237,2 3,2.22385763 3,2.5 C3,2.77614237 2.77614237,3 2.5,3 Z M4.5,3 C4.22385763,3 4,2.77614237 4,2.5 C4,2.22385763 4.22385763,2 4.5,2 C4.77614237,2 5,2.22385763 5,2.5 C5,2.77614237 4.77614237,3 4.5,3 Z M6.5,3 C6.22385763,3 6,2.77614237 6,2.5 C6,2.22385763 6.22385763,2 6.5,2 C6.77614237,2 7,2.22385763 7,2.5 C7,2.77614237 6.77614237,3 6.5,3 Z M8.5,3 C8.22385763,3 8,2.77614237 8,2.5 C8,2.22385763 8.22385763,2 8.5,2 C8.77614237,2 9,2.22385763 9,2.5 C9,2.77614237 8.77614237,3 8.5,3 Z M3.5,4 C3.22385763,4 3,3.77614237 3,3.5 C3,3.22385763 3.22385763,3 3.5,3 C3.77614237,3 4,3.22385763 4,3.5 C4,3.77614237 3.77614237,4 3.5,4 Z M5.5,4 C5.22385763,4 5,3.77614237 5,3.5 C5,3.22385763 5.22385763,3 5.5,3 C5.77614237,3 6,3.22385763 6,3.5 C6,3.77614237 5.77614237,4 5.5,4 Z M7.5,4 C7.22385763,4 7,3.77614237 7,3.5 C7,3.22385763 7.22385763,3 7.5,3 C7.77614237,3 8,3.22385763 8,3.5 C8,3.77614237 7.77614237,4 7.5,4 Z M8.5,5 C8.22385763,5 8,4.77614237 8,4.5 C8,4.22385763 8.22385763,4 8.5,4 C8.77614237,4 9,4.22385763 9,4.5 C9,4.77614237 8.77614237,5 8.5,5 Z M6.5,5 C6.22385763,5 6,4.77614237 6,4.5 C6,4.22385763 6.22385763,4 6.5,4 C6.77614237,4 7,4.22385763 7,4.5 C7,4.77614237 6.77614237,5 6.5,5 Z M4.5,5 C4.22385763,5 4,4.77614237 4,4.5 C4,4.22385763 4.22385763,4 4.5,4 C4.77614237,4 5,4.22385763 5,4.5 C5,4.77614237 4.77614237,5 4.5,5 Z M2.5,5 C2.22385763,5 2,4.77614237 2,4.5 C2,4.22385763 2.22385763,4 2.5,4 C2.77614237,4 3,4.22385763 3,4.5 C3,4.77614237 2.77614237,5 2.5,5 Z M3.5,6 C3.22385763,6 3,5.77614237 3,5.5 C3,5.22385763 3.22385763,5 3.5,5 C3.77614237,5 4,5.22385763 4,5.5 C4,5.77614237 3.77614237,6 3.5,6 Z M5.5,6 C5.22385763,6 5,5.77614237 5,5.5 C5,5.22385763 5.22385763,5 5.5,5 C5.77614237,5 6,5.22385763 6,5.5 C6,5.77614237 5.77614237,6 5.5,6 Z M7.5,6 C7.22385763,6 7,5.77614237 7,5.5 C7,5.22385763 7.22385763,5 7.5,5 C7.77614237,5 8,5.22385763 8,5.5 C8,5.77614237 7.77614237,6 7.5,6 Z M8.5,7 C8.22385763,7 8,6.77614237 8,6.5 C8,6.22385763 8.22385763,6 8.5,6 C8.77614237,6 9,6.22385763 9,6.5 C9,6.77614237 8.77614237,7 8.5,7 Z M6.5,7 C6.22385763,7 6,6.77614237 6,6.5 C6,6.22385763 6.22385763,6 6.5,6 C6.77614237,6 7,6.22385763 7,6.5 C7,6.77614237 6.77614237,7 6.5,7 Z M4.5,7 C4.22385763,7 4,6.77614237 4,6.5 C4,6.22385763 4.22385763,6 4.5,6 C4.77614237,6 5,6.22385763 5,6.5 C5,6.77614237 4.77614237,7 4.5,7 Z M2.5,7 C2.22385763,7 2,6.77614237 2,6.5 C2,6.22385763 2.22385763,6 2.5,6 C2.77614237,6 3,6.22385763 3,6.5 C3,6.77614237 2.77614237,7 2.5,7 Z" id="path-7"></path>
        <filter x="-50%" y="-50%" width="200%" height="200%" filterUnits="objectBoundingBox" id="filter-8">
            <feOffset dx="0" dy="0.5" in="SourceAlpha" result="shadowOffsetOuter1"></feOffset>
            <feColorMatrix values="0 0 0 0 0   0 0 0 0 0   0 0 0 0 0  0 0 0 0.06 0" type="matrix" in="shadowOffsetOuter1"></feColorMatrix>
        </filter>
        <rect id="path-9" x="1" y="1" width="21" height="15" rx="1.5"></rect>
        <filter x="-50%" y="-50%" width="200%" height="200%" filterUnits="objectBoundingBox" id="filter-11">
            <feOffset dx="0" dy="-0.5" in="SourceAlpha" result="shadowOffsetInner1"></feOffset>
            <feComposite in="shadowOffsetInner1" in2="SourceAlpha" operator="arithmetic" k2="-1" k3="1" result="shadowInnerInner1"></feComposite>
            <feColorMatrix values="0 0 0 0 0   0 0 0 0 0   0 0 0 0 0  0 0 0 0.04 0" type="matrix" in="shadowInnerInner1" result="shadowMatrixInner1"></feColorMatrix>
            <feOffset dx="0" dy="0.5" in="SourceAlpha" result="shadowOffsetInner2"></feOffset>
            <feComposite in="shadowOffsetInner2" in2="SourceAlpha" operator="arithmetic" k2="-1" k3="1" result="shadowInnerInner2"></feComposite>
            <feColorMatrix values="0 0 0 0 1   0 0 0 0 1   0 0 0 0 1  0 0 0 0.12 0" type="matrix" in="shadowInnerInner2" result="shadowMatrixInner2"></feColorMatrix>
            <feMerge>
                <feMergeNode in="shadowMatrixInner1"></feMergeNode>
                <feMergeNode in="shadowMatrixInner2"></feMergeNode>
            </feMerge>
        </filter>
    </defs>
    <g id="Page-1" stroke="none" stroke-width="1" fill="none" fill-rule="evenodd">
        <g id="en">
            <mask id="mask-3" fill="white">
                <use xlink:href="#path-2"></use>
            </mask>
            <g id="Mask">
                <use fill="black" fill-opacity="1" filter="url(#filter-4)" xlink:href="#path-2"></use>
                <use fill="url(#linearGradient-1)" fill-rule="evenodd" xlink:href="#path-2"></use>
            </g>
            <path d="M1,1 L22,1 L22,2 L1,2 L1,1 Z M1,3 L22,3 L22,4 L1,4 L1,3 Z M1,5 L22,5 L22,6 L1,6 L1,5 Z M1,7 L22,7 L22,8 L1,8 L1,7 Z M1,9 L22,9 L22,10 L1,10 L1,9 Z M1,11 L22,11 L22,12 L1,12 L1,11 Z M1,13 L22,13 L22,14 L1,14 L1,13 Z M1,15 L22,15 L22,16 L1,16 L1,15 Z" id="Rectangle-511" fill="url(#linearGradient-5)" mask="url(#mask-3)"></path>
            <rect id="Rectangle-511" fill="url(#linearGradient-6)" mask="url(#mask-3)" x="1" y="1" width="9" height="7"></rect>
            <g id="Oval-43" mask="url(#mask-3)">
                <use fill="black" fill-opacity="1" filter="url(#filter-8)" xlink:href="#path-7"></use>
                <use fill="url(#linearGradient-1)" fill-rule="evenodd" xlink:href="#path-7"></use>
            </g>
            <mask id="mask-10" fill="white">
                <use xlink:href="#path-9"></use>
            </mask>
            <g id="Depth" fill-opacity="1" fill="black">
                <use filter="url(#filter-11)" xlink:href="#path-9"></use>
            </g>
        </g>
    </g>
</svg>