<?xml version="1.0" encoding="iso-8859-1"?>
<!-- Generator: Adobe Illustrator 19.0.0, SVG Export Plug-In . SVG Version: 6.00 Build 0)  -->
<svg version="1.1" id="Layer_1" xmlns="http://www.w3.org/2000/svg" xmlns:xlink="http://www.w3.org/1999/xlink" x="0px" y="0px"
	 viewBox="0 0 512 512" style="enable-background:new 0 0 512 512;" xml:space="preserve">
<g>
	<g>
		<g>
			<path style="fill:#5C546A;" d="M431.781,312h-352c-4.422,0-8-3.578-8-8s3.578-8,8-8h352c4.422,0,8,3.578,8,8
				S436.203,312,431.781,312z"/>
		</g>
	</g>
	<g>
		<g>
			<path style="fill:#5C546A;" d="M431.781,120h-352c-4.422,0-8-3.578-8-8s3.578-8,8-8h352c4.422,0,8,3.578,8,8
				S436.203,120,431.781,120z"/>
		</g>
	</g>
	<g>
		<g>
			<path style="fill:#5C546A;" d="M431.781,216h-352c-4.422,0-8-3.578-8-8s3.578-8,8-8h352c4.422,0,8,3.578,8,8
				S436.203,216,431.781,216z"/>
		</g>
	</g>
	<g>
		<g>
			<path style="fill:#5C546A;" d="M431.781,408h-352c-4.422,0-8-3.578-8-8s3.578-8,8-8h352c4.422,0,8,3.578,8,8
				S436.203,408,431.781,408z"/>
		</g>
	</g>
	<g>
		<path style="fill:#E6BE94;" d="M407.781,0H104.219c-26.469,0-48,21.531-48,48v416c0,26.469,21.531,48,48,48h303.562
			c26.469,0,48-21.531,48-48V48C455.781,21.531,434.25,0,407.781,0z M423.781,464c0,8.82-7.18,16-16,16H104.219
			c-8.82,0-16-7.18-16-16V48c0-8.82,7.18-16,16-16h303.562c8.82,0,16,7.18,16,16V464z"/>
	</g>
	<path style="fill:#996459;" d="M144,136L144,136c-8.837,0-16-7.163-16-16v-16c0-8.837,7.163-16,16-16l0,0c8.837,0,16,7.163,16,16
		v16C160,128.837,152.837,136,144,136z"/>
	<path style="fill:#7E5C62;" d="M143.781,88.022C135.048,88.143,128,95.238,128,104v16c0,8.761,7.048,15.857,15.781,15.978V88.022z"
		/>
	<path style="fill:#996459;" d="M175.781,136L175.781,136c-8.837,0-16-7.163-16-16v-16c0-8.837,7.163-16,16-16l0,0
		c8.837,0,16,7.163,16,16v16C191.781,128.837,184.618,136,175.781,136z"/>
	<path style="fill:#7E5C62;" d="M175.562,88.022c-8.733,0.121-15.781,7.216-15.781,15.978v16c0,8.761,7.048,15.857,15.781,15.978
		V88.022z"/>
	<path style="fill:#996459;" d="M207.781,136L207.781,136c-8.837,0-16-7.163-16-16v-16c0-8.837,7.163-16,16-16l0,0
		c8.837,0,16,7.163,16,16v16C223.781,128.837,216.618,136,207.781,136z"/>
	<path style="fill:#7E5C62;" d="M207.562,88.022c-8.733,0.121-15.781,7.216-15.781,15.978v16c0,8.761,7.048,15.857,15.781,15.978
		V88.022z"/>
	<path style="fill:#996459;" d="M367.781,136L367.781,136c-8.837,0-16-7.163-16-16v-16c0-8.837,7.163-16,16-16l0,0
		c8.837,0,16,7.163,16,16v16C383.781,128.837,376.618,136,367.781,136z"/>
	<path style="fill:#7E5C62;" d="M367.562,88.022c-8.733,0.121-15.781,7.216-15.781,15.978v16c0,8.761,7.048,15.857,15.781,15.978
		V88.022z"/>
	<path style="fill:#996459;" d="M144,232L144,232c-8.837,0-16-7.163-16-16v-16c0-8.837,7.163-16,16-16l0,0c8.837,0,16,7.163,16,16
		v16C160,224.836,152.837,232,144,232z"/>
	<path style="fill:#7E5C62;" d="M143.781,184.022C135.048,184.143,128,191.238,128,200v16c0,8.761,7.048,15.857,15.781,15.978
		V184.022z"/>
	<path style="fill:#996459;" d="M175.781,232L175.781,232c-8.837,0-16-7.163-16-16v-16c0-8.837,7.163-16,16-16l0,0
		c8.837,0,16,7.163,16,16v16C191.781,224.836,184.618,232,175.781,232z"/>
	<path style="fill:#7E5C62;" d="M175.562,184.022c-8.733,0.121-15.781,7.216-15.781,15.978v16c0,8.761,7.048,15.857,15.781,15.978
		V184.022z"/>
	<path style="fill:#996459;" d="M207.781,232L207.781,232c-8.837,0-16-7.163-16-16v-16c0-8.837,7.163-16,16-16l0,0
		c8.837,0,16,7.163,16,16v16C223.781,224.836,216.618,232,207.781,232z"/>
	<path style="fill:#7E5C62;" d="M207.562,184.022c-8.733,0.121-15.781,7.216-15.781,15.978v16c0,8.761,7.048,15.857,15.781,15.978
		V184.022z"/>
	<path style="fill:#996459;" d="M303.781,328L303.781,328c-8.837,0-16-7.163-16-16v-16c0-8.837,7.163-16,16-16l0,0
		c8.837,0,16,7.163,16,16v16C319.781,320.836,312.618,328,303.781,328z"/>
	<path style="fill:#7E5C62;" d="M303.562,280.022c-8.733,0.121-15.781,7.216-15.781,15.978v16c0,8.761,7.048,15.857,15.781,15.978
		V280.022z"/>
	<path style="fill:#996459;" d="M143.781,328L143.781,328c-8.837,0-16-7.163-16-16v-16c0-8.837,7.163-16,16-16l0,0
		c8.837,0,16,7.163,16,16v16C159.781,320.836,152.618,328,143.781,328z"/>
	<path style="fill:#7E5C62;" d="M143.562,280.022c-8.733,0.121-15.781,7.216-15.781,15.978v16c0,8.761,7.048,15.857,15.781,15.978
		V280.022z"/>
	<path style="fill:#996459;" d="M239.781,424L239.781,424c-8.837,0-16-7.163-16-16v-16c0-8.837,7.163-16,16-16l0,0
		c8.837,0,16,7.163,16,16v16C255.781,416.836,248.618,424,239.781,424z"/>
	<path style="fill:#7E5C62;" d="M239.562,376.022c-8.733,0.121-15.781,7.216-15.781,15.978v16c0,8.761,7.048,15.857,15.781,15.978
		V376.022z"/>
	<path style="fill:#996459;" d="M271.781,424L271.781,424c-8.837,0-16-7.163-16-16v-16c0-8.837,7.163-16,16-16l0,0
		c8.837,0,16,7.163,16,16v16C287.781,416.836,280.618,424,271.781,424z"/>
	<path style="fill:#7E5C62;" d="M271.562,376.022c-8.733,0.121-15.781,7.216-15.781,15.978v16c0,8.761,7.048,15.857,15.781,15.978
		V376.022z"/>
	<path style="fill:#868491;" d="M239.781,136L239.781,136c-8.837,0-16-7.163-16-16v-16c0-8.837,7.163-16,16-16l0,0
		c8.837,0,16,7.163,16,16v16C255.781,128.837,248.618,136,239.781,136z"/>
	<path style="fill:#5C546A;" d="M239.562,88.022c-8.733,0.121-15.781,7.216-15.781,15.978v16c0,8.761,7.048,15.857,15.781,15.978
		V88.022z"/>
	<path style="fill:#868491;" d="M335.781,136L335.781,136c-8.837,0-16-7.163-16-16v-16c0-8.837,7.163-16,16-16l0,0
		c8.837,0,16,7.163,16,16v16C351.781,128.837,344.618,136,335.781,136z"/>
	<path style="fill:#5C546A;" d="M335.562,88.022c-8.733,0.121-15.781,7.216-15.781,15.978v16c0,8.761,7.048,15.857,15.781,15.978
		V88.022z"/>
	<path style="fill:#868491;" d="M239.781,232L239.781,232c-8.837,0-16-7.163-16-16v-16c0-8.837,7.163-16,16-16l0,0
		c8.837,0,16,7.163,16,16v16C255.781,224.836,248.618,232,239.781,232z"/>
	<path style="fill:#5C546A;" d="M239.562,184.022c-8.733,0.121-15.781,7.216-15.781,15.978v16c0,8.761,7.048,15.857,15.781,15.978
		V184.022z"/>
	<path style="fill:#868491;" d="M271.781,232L271.781,232c-8.837,0-16-7.163-16-16v-16c0-8.837,7.163-16,16-16l0,0
		c8.837,0,16,7.163,16,16v16C287.781,224.836,280.618,232,271.781,232z"/>
	<path style="fill:#5C546A;" d="M271.562,184.022c-8.733,0.121-15.781,7.216-15.781,15.978v16c0,8.761,7.048,15.857,15.781,15.978
		V184.022z"/>
	<path style="fill:#868491;" d="M335.781,328L335.781,328c-8.837,0-16-7.163-16-16v-16c0-8.837,7.163-16,16-16l0,0
		c8.837,0,16,7.163,16,16v16C351.781,320.836,344.618,328,335.781,328z"/>
	<path style="fill:#5C546A;" d="M335.562,280.022c-8.733,0.121-15.781,7.216-15.781,15.978v16c0,8.761,7.048,15.857,15.781,15.978
		V280.022z"/>
	<path style="fill:#868491;" d="M367.781,328L367.781,328c-8.837,0-16-7.163-16-16v-16c0-8.837,7.163-16,16-16l0,0
		c8.837,0,16,7.163,16,16v16C383.781,320.836,376.618,328,367.781,328z"/>
	<path style="fill:#5C546A;" d="M367.562,280.022c-8.733,0.121-15.781,7.216-15.781,15.978v16c0,8.761,7.048,15.857,15.781,15.978
		V280.022z"/>
	<path style="fill:#868491;" d="M367.781,424L367.781,424c-8.837,0-16-7.163-16-16v-16c0-8.837,7.163-16,16-16l0,0
		c8.837,0,16,7.163,16,16v16C383.781,416.836,376.618,424,367.781,424z"/>
	<path style="fill:#5C546A;" d="M367.562,376.022c-8.733,0.121-15.781,7.216-15.781,15.978v16c0,8.761,7.048,15.857,15.781,15.978
		V376.022z"/>
</g>
<g>
</g>
<g>
</g>
<g>
</g>
<g>
</g>
<g>
</g>
<g>
</g>
<g>
</g>
<g>
</g>
<g>
</g>
<g>
</g>
<g>
</g>
<g>
</g>
<g>
</g>
<g>
</g>
<g>
</g>
</svg>
