<svg height="512pt" viewBox="-62 0 512 512" width="512pt" xmlns="http://www.w3.org/2000/svg"><path d="m272.929688 180-272.929688-180v512l282.496094-186.3125 105.679687-69.6875zm0 0" fill="#00d7df"/><path d="m388.175781 256-112.207031 73.914062-74.445312-73.878906 71.40625-76.035156zm0 0" fill="#fdbf00"/><path d="m275.96875 329.914062-275.96875 182.085938v-41.75l201.453125-214.214844zm0 0" fill="#ff0059"/><path d="m0 0 272.929688 180-71.453126 76.023438-201.476562-211.554688zm0 0" fill="#9bdd39"/><path d="m0 44.46875 201.476562 211.554688-201.476562 214.226562zm0 0" fill="#00d7df"/><path d="m275.96875 329.914062-275.96875 182.085938v-41.75l201.453125-214.214844zm0 0" fill="#d20041"/><path d="m387.796875 256.25h-186.058594l74.230469 73.664062zm0 0" fill="#ff9100"/><path d="m0 470.25 201.265625-214h-201.265625zm0 0" fill="#00aadf"/></svg>