<?xml version="1.0" encoding="iso-8859-1"?>
<!-- Generator: Adobe Illustrator 19.0.0, SVG Export Plug-In . SVG Version: 6.00 Build 0)  -->
<svg version="1.1" id="Capa_1" xmlns="http://www.w3.org/2000/svg" xmlns:xlink="http://www.w3.org/1999/xlink" x="0px" y="0px"
	 viewBox="0 0 512 512" style="enable-background:new 0 0 512 512;" xml:space="preserve">
<polygon style="fill:#EDF2FA;" points="248.565,448 10,448 10,10 502,10 502,448 472.533,448 "/>
<rect x="10" y="10" style="fill:#7D9BFF;" width="492" height="72"/>
<path style="fill:#231F20;" d="M21.004,82H496"/>
<g>
	<path style="fill:#FFC66C;" d="M257.785,277.44l13.343,27.018c0.292,0.59,0.855,0.999,1.506,1.094l29.821,4.325
		c1.641,0.238,2.296,2.254,1.109,3.411l-21.572,21.039c-0.471,0.46-0.686,1.122-0.575,1.77l5.102,29.698
		c0.281,1.634-1.434,2.88-2.901,2.109l-26.676-14.015c-0.583-0.306-1.279-0.306-1.861,0l-26.668,14.029
		c-1.467,0.772-3.182-0.474-2.902-2.108l5.086-29.701c0.111-0.649-0.104-1.311-0.576-1.77l-21.584-21.028
		c-1.187-1.157-0.533-3.173,1.108-3.412l29.819-4.341c0.651-0.095,1.214-0.504,1.506-1.094l13.329-27.025
		C254.931,275.954,257.051,275.954,257.785,277.44z"/>
	<path style="fill:#FFC66C;" d="M116.25,277.44l13.343,27.018c0.291,0.59,0.855,0.999,1.506,1.094l29.821,4.325
		c1.641,0.238,2.296,2.254,1.109,3.411l-21.572,21.039c-0.471,0.46-0.686,1.122-0.575,1.77l5.102,29.698
		c0.281,1.634-1.434,2.88-2.901,2.109l-26.676-14.015c-0.583-0.306-1.279-0.306-1.861,0L86.878,367.92
		c-1.467,0.772-3.182-0.474-2.902-2.108l5.086-29.701c0.111-0.649-0.104-1.311-0.576-1.77l-21.584-21.028
		c-1.187-1.157-0.533-3.173,1.108-3.412l29.819-4.341c0.651-0.095,1.214-0.504,1.506-1.094l13.329-27.025
		C113.397,275.954,115.516,275.954,116.25,277.44z"/>
	<path style="fill:#FFC66C;" d="M395.75,277.44l-13.343,27.018c-0.292,0.59-0.855,0.999-1.506,1.094l-29.821,4.325
		c-1.641,0.238-2.296,2.254-1.109,3.411l21.572,21.039c0.471,0.46,0.686,1.122,0.575,1.77l-5.102,29.698
		c-0.281,1.634,1.434,2.88,2.901,2.109l26.676-14.015c0.583-0.306,1.279-0.306,1.861,0l26.668,14.029
		c1.467,0.772,3.182-0.474,2.902-2.108l-5.086-29.701c-0.111-0.649,0.104-1.311,0.576-1.77l21.584-21.028
		c1.187-1.157,0.533-3.173-1.108-3.412l-29.819-4.341c-0.651-0.095-1.214-0.504-1.506-1.094l-13.329-27.025
		C398.603,275.954,396.484,275.954,395.75,277.44z"/>
</g>
<rect x="64" y="128" style="fill:#A0E557;" width="384" height="107.97"/>
<g>
	<path style="fill:#FFCDAC;" d="M400.397,502v-19.804c0-13.28,10.765-24.045,24.045-24.045l0,0c13.28,0,24.045,10.765,24.045,24.045
		V502"/>
	<path style="fill:#FFCDAC;" d="M304.217,502V392.199c0-13.28,10.765-24.045,24.045-24.045l0,0c13.28,0,24.045,10.765,24.045,24.045
		V502"/>
	<path style="fill:#FFCDAC;" d="M448.488,499.915c0-13.28,10.765-24.045,24.045-24.045l0,0c13.28,0,24.045,10.765,24.045,24.045"/>
	<rect x="352.31" y="458.15" style="fill:#FFCDAC;" width="48.09" height="43.849"/>
</g>
<path d="M502,0H10C4.478,0,0,4.477,0,10v438c0,5.522,4.478,10,10,10h207.5c5.522,0,10-4.478,10-10s-4.478-10-10-10H20V91.949
	C20.33,91.982,20.665,92,21.004,92H492v346h-19.468c-5.522,0-10,4.478-10,10s4.478,10,10,10H502c5.522,0,10-4.478,10-10V10
	C512,4.477,507.522,0,502,0z M21.004,72c-0.339,0-0.674,0.018-1.004,0.051V20h472v52H21.004z"/>
<path d="M260,438c-2.63,0-5.21,1.069-7.07,2.93S250,445.37,250,448s1.069,5.21,2.93,7.069c1.86,1.86,4.44,2.931,7.07,2.931
	s5.21-1.07,7.069-2.931C268.93,453.21,270,450.63,270,448s-1.07-5.21-2.931-7.07C265.21,439.069,262.63,438,260,438z"/>
<path d="M448,36H222.065c-5.522,0-10,4.477-10,10s4.478,10,10,10H448c5.522,0,10-4.477,10-10S453.522,36,448,36z"/>
<path d="M104,36c-2.63,0-5.21,1.07-7.07,2.93C95.069,40.79,94,43.37,94,46s1.069,5.21,2.93,7.07S101.37,56,104,56
	s5.21-1.07,7.069-2.93C112.93,51.21,114,48.63,114,46s-1.07-5.21-2.931-7.07C109.21,37.07,106.63,36,104,36z"/>
<path d="M64,36c-2.63,0-5.21,1.07-7.07,2.93C55.069,40.79,54,43.37,54,46s1.069,5.21,2.93,7.07S61.37,56,64,56
	c2.63,0,5.21-1.07,7.069-2.93C72.93,51.21,74,48.63,74,46s-1.07-5.21-2.931-7.07C69.21,37.07,66.63,36,64,36z"/>
<path d="M144,36c-2.63,0-5.21,1.07-7.07,2.93S134,43.37,134,46s1.069,5.21,2.93,7.07S141.37,56,144,56s5.21-1.07,7.069-2.93
	C152.93,51.21,154,48.63,154,46s-1.07-5.21-2.931-7.07C149.21,37.07,146.63,36,144,36z"/>
<path d="M296.375,364.103l-4.39-25.554l18.562-18.102c3.293-3.213,4.456-7.926,3.033-12.301c-1.423-4.376-5.135-7.505-9.689-8.166
	l-25.659-3.722l-11.48-23.247c0-0.002-0.001-0.003-0.002-0.004c-2.038-4.122-6.159-6.683-10.758-6.683c-0.001,0-0.003,0-0.005,0
	c-4.6,0.002-8.722,2.565-10.758,6.692l-11.468,23.253l-25.661,3.735c-4.552,0.664-8.262,3.795-9.682,8.171s-0.255,9.088,3.04,12.3
	l18.571,18.092l-4.377,25.56c-0.774,4.533,1.056,9.029,4.777,11.731c2.104,1.527,4.563,2.303,7.04,2.303
	c1.907,0,3.826-0.46,5.6-1.393l22.945-12.071l22.953,12.06c4.072,2.141,8.914,1.79,12.636-0.917
	C295.325,373.137,297.153,368.64,296.375,364.103z M275.011,327.168c-2.833,2.762-4.121,6.738-3.448,10.623l2.357,13.723
	l-12.334-6.48c-3.499-1.835-7.672-1.831-11.161,0.008l-12.322,6.482l2.35-13.723c0.667-3.893-0.623-7.862-3.453-10.623l-9.974-9.716
	l13.777-2.006c3.912-0.568,7.29-3.025,9.035-6.567l6.158-12.487l6.164,12.481c1.748,3.542,5.125,5.996,9.038,6.565l13.779,1.998
	L275.011,327.168z"/>
<path d="M172.046,308.146c-1.423-4.376-5.135-7.505-9.689-8.166l-25.659-3.722l-11.48-23.247c0-0.002-0.001-0.003-0.002-0.004
	c-2.038-4.122-6.159-6.683-10.758-6.683c-0.001,0-0.003,0-0.005,0c-4.6,0.002-8.722,2.565-10.758,6.692l-11.468,23.253
	l-25.661,3.735c-4.552,0.664-8.262,3.795-9.682,8.171s-0.255,9.088,3.04,12.3l18.571,18.092l-4.377,25.56
	c-0.774,4.533,1.056,9.029,4.777,11.731c2.104,1.527,4.563,2.303,7.04,2.303c1.907,0,3.826-0.46,5.6-1.393l22.945-12.071
	l22.953,12.06c4.072,2.141,8.914,1.79,12.636-0.917c3.722-2.704,5.55-7.201,4.771-11.738l-4.39-25.553l18.562-18.103
	C172.306,317.234,173.469,312.521,172.046,308.146z M133.477,327.168c-2.828,2.758-4.118,6.729-3.449,10.623l2.357,13.722
	l-12.333-6.479c-3.5-1.835-7.673-1.831-11.161,0.008l-12.322,6.482l2.35-13.723c0.667-3.893-0.623-7.862-3.453-10.623l-9.974-9.716
	l13.777-2.006c3.912-0.568,7.29-3.025,9.035-6.567l6.158-12.487l6.164,12.481c1.748,3.542,5.125,5.996,9.038,6.565l13.779,1.998
	L133.477,327.168z"/>
<path d="M455.116,308.177c-1.42-4.376-5.13-7.507-9.686-8.171l-25.657-3.735l-11.469-23.255c-2.035-4.125-6.157-6.688-10.757-6.69
	c-0.002,0-0.003,0-0.005,0c-4.599,0-8.721,2.561-10.758,6.683c-0.001,0.001-0.002,0.002-0.002,0.004l-11.48,23.247l-25.661,3.722
	c-4.553,0.661-8.265,3.79-9.688,8.166c-1.423,4.375-0.26,9.088,3.033,12.301l18.563,18.103l-4.392,25.556
	c-0.777,4.534,1.051,9.031,4.772,11.735c3.722,2.706,8.563,3.056,12.637,0.917l22.952-12.06l22.949,12.073
	c1.771,0.932,3.688,1.391,5.595,1.391c2.478,0,4.938-0.775,7.041-2.303c3.722-2.702,5.552-7.198,4.776-11.734l-4.376-25.557
	l18.572-18.093C455.371,317.265,456.536,312.553,455.116,308.177z M416.532,327.182c-2.827,2.757-4.117,6.727-3.45,10.617
	l2.35,13.725l-12.317-6.48c-1.749-0.921-3.669-1.382-5.59-1.382c-1.916,0-3.833,0.458-5.584,1.376l-12.325,6.476l2.357-13.723
	c0.669-3.894-0.621-7.864-3.448-10.622l-9.968-9.722l13.783-1.999c3.909-0.568,7.286-3.022,9.032-6.562l6.166-12.484l6.156,12.483
	c1.747,3.546,5.125,6.003,9.036,6.571l13.778,2.006L416.532,327.182z"/>
<path d="M458,235.974V128c0-5.523-4.478-10-10-10H64c-5.522,0-10,4.477-10,10v107.974c0,5.523,4.478,10,10,10h384
	C453.522,245.974,458,241.497,458,235.974z M438,225.974H74V182h148.065c5.522,0,10-4.477,10-10s-4.478-10-10-10H74v-24h364V225.974
	z"/>
<path d="M472.532,465.87c-5.901,0-11.456,1.511-16.299,4.164c-4.907-12.782-17.302-21.883-31.791-21.883
	c-9.378,0-17.882,3.812-24.045,9.966c-6.163-6.155-14.667-9.966-24.045-9.966c-5.007,0-9.76,1.095-14.045,3.044v-58.997
	c0-18.772-15.272-34.045-34.046-34.045c-18.772,0-34.045,15.272-34.045,34.045V502c0,5.522,4.478,10,10,10s10-4.478,10-10V392.199
	c0-7.744,6.301-14.045,14.045-14.045c7.745,0,14.046,6.301,14.046,14.045V502c0,5.522,4.478,10,10,10s10-4.478,10-10v-19.804
	c0-7.744,6.301-14.045,14.045-14.045s14.045,6.301,14.045,14.045V502c0,5.522,4.478,10,10,10s10-4.478,10-10v-19.804
	c0-7.744,6.301-14.045,14.045-14.045s14.045,6.301,14.045,14.045V502c0,5.522,4.478,10,10,10s10-4.478,10-10v-2.085
	c0-7.744,6.301-14.045,14.045-14.045c7.745,0,14.046,6.301,14.046,14.045c0,5.522,4.478,10,10,10s10-4.478,10-10
	C506.578,481.143,491.306,465.87,472.532,465.87z"/>
<path d="M267,182c2.63,0,5.21-1.07,7.069-2.93c1.86-1.86,2.931-4.44,2.931-7.07s-1.07-5.21-2.931-7.07
	C272.21,163.07,269.63,162,267,162s-5.21,1.07-7.07,2.93c-1.86,1.86-2.93,4.44-2.93,7.07s1.069,5.21,2.93,7.07S264.37,182,267,182z"
	/>
<g>
</g>
<g>
</g>
<g>
</g>
<g>
</g>
<g>
</g>
<g>
</g>
<g>
</g>
<g>
</g>
<g>
</g>
<g>
</g>
<g>
</g>
<g>
</g>
<g>
</g>
<g>
</g>
<g>
</g>
</svg>
