<?xml version="1.0" encoding="utf-8"?>
<!-- Generator: Adobe Illustrator 16.0.0, SVG Export Plug-In . SVG Version: 6.00 Build 0)  -->
<!DOCTYPE svg PUBLIC "-//W3C//DTD SVG 1.1//EN" "http://www.w3.org/Graphics/SVG/1.1/DTD/svg11.dtd">
<svg version="1.1" id="_x36__copy_2_1_" xmlns="http://www.w3.org/2000/svg" xmlns:xlink="http://www.w3.org/1999/xlink" x="0px"
	 y="0px" width="384.235px" height="131px" viewBox="0 0 384.235 131" enable-background="new 0 0 384.235 131"
	 xml:space="preserve">
<path fill-rule="evenodd" clip-rule="evenodd" d="M168.709,54.075h-0.144c-2.199-3.964-5.76-5.946-10.684-5.946
	c-5.066,0-9.1,1.821-12.1,5.462c-3,3.642-4.499,8.507-4.499,14.597c0,5.66,1.368,10.131,4.104,13.415
	c2.737,3.284,6.364,4.925,10.881,4.925c5.688,0,9.788-2.388,12.297-7.164h0.144v23.597l8.317-0.421V48.988h-8.317V54.075z
	 M168.816,68.976c0,3.152-0.884,5.767-2.652,7.844c-1.77,2.078-4.147,3.116-7.135,3.116c-2.725,0-4.947-1.062-6.668-3.188
	c-1.721-2.125-2.581-5.05-2.581-8.775c0-4.203,0.89-7.457,2.671-9.761c1.779-2.304,4.212-3.457,7.295-3.457
	c2.629,0,4.798,0.919,6.508,2.758c1.708,1.839,2.563,4.083,2.563,6.734V68.976z M222.183,75.531
	c-0.312,1.218-0.491,2.269-0.538,3.152h-0.251c-0.096-1.266-0.251-2.316-0.466-3.152l-6.597-26.543h-7.815l-7.421,26.364
	c-0.312,1.146-0.502,2.221-0.574,3.224h-0.251c-0.071-1.313-0.215-2.364-0.431-3.152l-6.668-26.436h-8.604l10.791,36.68h8.532
	l7.242-24.931c0.382-1.29,0.597-2.339,0.646-3.152h0.143c0.072,1.194,0.238,2.269,0.502,3.224l6.668,24.859h8.713l10.826-36.68
	h-7.923L222.183,75.531z M240.907,85.668h8.317v-36.68h-8.317V85.668z M245.102,31.83c-1.362,0-2.527,0.454-3.496,1.361
	c-0.968,0.908-1.451,2.042-1.451,3.403c0,1.361,0.483,2.484,1.451,3.367c0.969,0.883,2.134,1.325,3.496,1.325
	c1.41,0,2.604-0.459,3.585-1.379c0.979-0.919,1.47-2.023,1.47-3.313c0-1.361-0.49-2.495-1.47-3.403
	C247.706,32.284,246.512,31.83,245.102,31.83z M277.754,48.128c-5.187,0-9.154,2.316-11.902,6.949h-0.144v-6.09h-8.353v36.68h8.353
	V64.749c0-2.889,0.824-5.284,2.474-7.182c1.649-1.898,3.74-2.848,6.274-2.848c4.852,0,7.277,3.427,7.277,10.281v20.668h8.317V63.245
	c0-4.895-1.052-8.638-3.154-11.23C284.792,49.424,281.745,48.128,277.754,48.128z M308.462,37.713l-8.317,4.891v6.383h-6.131v6.52
	h6.131v20.74c0,6.83,3.561,10.245,10.684,10.245c2.652,0,4.792-0.407,6.417-1.218v-6.591c-1.027,0.812-2.247,1.218-3.656,1.218
	c-1.841,0-3.155-0.466-3.944-1.397c-0.788-0.931-1.183-2.483-1.183-4.656v-18.34h8.783v-6.52h-8.783V37.713z M335.996,50.51
	c-1.685,1.445-2.934,3.457-3.746,6.036h-0.144v-7.559h-8.317v36.68h8.317V68.116c0-3.821,0.825-6.842,2.474-9.063
	c1.649-2.221,3.705-3.332,6.167-3.332c1.888,0,3.334,0.394,4.338,1.182v-7.88c-0.789-0.454-1.936-0.681-3.442-0.681
	C339.563,48.343,337.682,49.066,335.996,50.51z M375.847,48.988l-9.179,26.722c-0.311,1.17-0.525,2.03-0.645,2.579h-0.18
	c-0.335-1.433-0.55-2.316-0.646-2.65l-8.747-26.651h-9.214l14.592,36.609l-6.687,17.391l8.317-0.072l20.775-53.928H375.847z"/>
<path fill-rule="evenodd" clip-rule="evenodd" fill="#F39200" d="M55.34,105.299c0.062,10.103,0.141,19.29,0.234,23.411
	c0.033,1.465,1.08,2.29,1.08,2.29l24.216-14.035v-24.99l-24.216,14.083L55.34,105.299z M57.374,63.556
	c-1.192,0.696-2.204,2.459-2.204,2.459s0.035,12.711,0.103,26.891l1.382,0.796L80.87,79.63V51.714l-1.458-0.848
	C69.891,56.315,61.084,61.39,57.374,63.556z M91.721,110.676l21.589-12.512V73.108L91.721,85.664V110.676z M109.62,33.786
	c-3.939,2.148-11.211,6.251-19.172,10.781l1.272,0.74v27.916l21.589-12.471V32.721C113.31,32.721,111.521,32.75,109.62,33.786z"/>
<path fill-rule="evenodd" clip-rule="evenodd" fill="#EF7D00" d="M54.031,62.839c-4.205-2.55-11.904-7.094-20.176-11.949
	l-1.416,0.823v28.03l24.215,13.958V65.786C56.654,65.786,56.256,64.188,54.031,62.839z M21.589,45.307l1.373-0.798
	c-6.359-3.72-12.301-7.186-16.468-9.618C2.651,32.648,0,32.721,0,32.721v65.557L56.654,131v-24.941l-35.065-20.25V45.307z"/>
<path fill-rule="evenodd" clip-rule="evenodd" fill="#FAB334" d="M113.31,32.721L56.654,0L0,32.721L21.589,45.32v-0.014
	l35.065-20.365l35.066,20.365v0.014L113.31,32.721z M32.491,51.684l24.163,14.103l24.164-14.103L56.654,37.641L32.491,51.684z"/>
</svg>
