<svg height="512pt" viewBox="0 -56 512 512" width="512pt" xmlns="http://www.w3.org/2000/svg"><path d="m486.625 356.152344h-461.25v-337.632813c0-10.226562 8.289062-18.519531 18.515625-18.519531h424.21875c10.226563 0 18.515625 8.292969 18.515625 18.519531zm0 0" fill="#91aee2"/><path d="m449.007812 51.601562v246.363282c0 8.621094-6.988281 15.609375-15.609374 15.609375h-354.796876c-8.621093 0-15.609374-6.988281-15.609374-15.609375v-246.363282c0-8.617187 6.988281-15.605468 15.609374-15.605468h354.796876c8.621093 0 15.609374 6.988281 15.609374 15.605468zm0 0" fill="#d2d2d7"/><path d="m449.007812 51.601562v246.363282c0 8.621094-6.988281 15.609375-15.609374 15.609375h-323.644532c-8.617187 0-15.609375-6.988281-15.609375-15.609375v-246.363282c0-8.617187 6.992188-15.605468 15.609375-15.605468h323.644532c8.621093 0 15.609374 6.988281 15.609374 15.605468zm0 0" fill="#ebebf0"/><path d="m512 353.648438v38.691406c0 4.351562-3.53125 7.882812-7.882812 7.882812h-496.234376c-4.351562 0-7.882812-3.53125-7.882812-7.882812v-38.691406c0-4.351563 3.53125-7.882813 7.882812-7.882813h496.234376c4.351562 0 7.882812 3.53125 7.882812 7.882813zm0 0" fill="#2e5aac"/><path d="m512 353.648438v16.460937h-477.117188c-4.351562 0-7.882812-3.53125-7.882812-7.882813v-16.460937h477.117188c4.351562 0 7.882812 3.53125 7.882812 7.882813zm0 0" fill="#4172cc"/><path d="m247.671875 245.34375c29.023437-4.003906 41.007813-22.074219 43.921875-27.34375.445312-.8125.207031-1.816406-.539062-2.359375-19.960938-14.402344-44.285157-63.269531-46.476563-73.855469h-118.886719s-13.6875 52.710938-42.984375 73.855469c-.746093.542969-.988281 1.546875-.539062 2.355469 2.914062 5.273437 14.894531 23.34375 43.921875 27.347656zm0 0" fill="#7c3f2c"/><path d="m160.628906 201.5625h57.765625v98.730469h-57.765625zm0 0" fill="#e3a76f"/><path d="m242.75 57.558594-110.496094 4.152344c-1.589844 2.785156-2.484375 6.019531-2.484375 9.449218v103.980469c0 32.109375 44.621094 58.136719 59.3125 58.148437 7.351563-.011718 22.175781-6.515624 35.160157-17.042968 12.996093-10.511719 24.152343-25.046875 24.152343-41.105469v-103.980469c0-5.304687-2.15625-10.128906-5.644531-13.601562zm0 0" fill="#f2bb88"/><path d="m426.347656 82.445312v100.925782c0 .46875-.011718.9375-.039062 1.402344-.023438.363281-.042969.71875-.085938 1.082031-.03125.371093-.082031.757812-.132812 1.132812-.0625.433594-.136719.859375-.21875 1.285157-.074219.375-.15625.75-.25 1.113281-.164063.683593-.375 1.359375-.601563 2.023437-.0625.207032-.136719.414063-.21875.625-.105469.289063-.21875.578125-.332031.871094-.136719.320312-.28125.644531-.425781.964844-.457031.996094-.988281 1.960937-1.566407 2.875-.117187.179687-.21875.34375-.335937.511718-.371094.550782-.757813 1.089844-1.160156 1.597657-.238281.3125-.488281.613281-.75.902343-.207031.242188-.425781.488282-.644531.71875-.039063.050782-.089844.09375-.132813.144532-2.003906 2.109375-4.371094 3.863281-7.011719 5.171875-.164062.894531-.351562 1.753906-.546875 2.605469-6.441406 28.527343-25.539062 36.730468-34.394531 39.027343-1.308594.339844-2.367188-1.132812-1.578125-2.234375 5.710937-8.058594 5.742187-23.957031 4.578125-36.792968h-54.195312c-13.824219 0-25.027344-11.203126-25.027344-25.027344v-100.925782c0-13.820312 11.203125-25.027343 25.027344-25.027343h75.015624c13.824219 0 25.027344 11.207031 25.027344 25.027343zm0 0" fill="#1ab975"/><g fill="#7c3f2c"><path d="m173.265625 164.171875c0 4.71875-3.824219 8.542969-8.542969 8.542969s-8.542968-3.824219-8.542968-8.542969c0-4.714844 3.824218-8.539063 8.542968-8.539063s8.542969 3.824219 8.542969 8.539063zm0 0"/><path d="m221.980469 164.171875c0 4.71875-3.824219 8.542969-8.539063 8.542969-4.71875 0-8.542968-3.824219-8.542968-8.542969 0-4.714844 3.824218-8.539063 8.542968-8.539063 4.714844 0 8.539063 3.824219 8.539063 8.539063zm0 0"/><path d="m205.425781 185.015625c-4.015625-1.554687-8.519531.433594-10.078125 4.445313-1.023437 2.640624-3.515625 4.34375-6.347656 4.34375-2.742188 0-5.203125-1.632813-6.273438-4.15625-1.675781-3.960938-6.242187-5.816407-10.207031-4.140626-3.960937 1.675782-5.8125 6.246094-4.136719 10.207032 3.511719 8.304687 11.601563 13.667968 20.617188 13.667968 9.308594 0 17.5-5.605468 20.871094-14.285156 1.554687-4.011718-.433594-8.523437-4.445313-10.082031zm0 0"/></g><path d="m253.464844 136.476562h-25.390625c-7.851563 0-14.21875-6.367187-14.21875-14.222656v-64.703125h28.238281c13.082031 0 23.683594 10.605469 23.683594 23.683594v42.925781c0 6.800782-5.511719 12.316406-12.3125 12.316406zm0 0" fill="#ae583e"/><path d="m132.28125 142.445312h-8.925781c-5.015625 0-9.082031-3.664062-9.082031-8.183593v-51.070313c0-14.15625 12.765624-25.632812 28.519531-25.632812h76.46875c2.113281 0 3.828125 1.542968 3.828125 3.445312v6.3125c0 25.515625-39.109375 75.566406-90.808594 75.128906zm0 0" fill="#c0694e"/><path d="m426.347656 82.445312c-.402344 107.507813.992188 103.226563-1.546875 109.589844-2.007812 5.609375-6.390625 10.796875-12.359375 13.757813-4.3125 23.207031-18.15625 37.28125-34.941406 41.632812-1.308594.339844-2.367188-1.132812-1.578125-2.234375 5.710937-8.058594 5.742187-23.957031 4.578125-36.792968h-24.152344c-17.03125 0-30.84375-11.203126-30.84375-25.027344v-100.925782c0-13.820312 13.8125-25.027343 30.84375-25.027343h44.972656c13.824219 0 25.027344 11.207031 25.027344 25.027343zm0 0" fill="#1ed688"/><path d="m332.390625 100.089844h62.84375c4.300781 0 7.785156-3.484375 7.785156-7.785156 0-4.304688-3.484375-7.789063-7.785156-7.789063h-62.84375c-4.300781 0-7.789063 3.484375-7.789063 7.789063 0 4.300781 3.488282 7.785156 7.789063 7.785156zm0 0" fill="#a1ffbc"/><path d="m395.230469 124.292969h-62.839844c-4.300781 0-7.789063 3.488281-7.789063 7.789062s3.488282 7.789063 7.789063 7.789063h62.839844c4.304687 0 7.789062-3.488282 7.789062-7.789063s-3.484375-7.789062-7.789062-7.789062zm0 0" fill="#a1ffbc"/><path d="m395.230469 164.074219h-62.839844c-4.300781 0-7.789063 3.488281-7.789063 7.789062s3.488282 7.789063 7.789063 7.789063h62.839844c4.304687 0 7.789062-3.488282 7.789062-7.789063s-3.484375-7.789062-7.789062-7.789062zm0 0" fill="#a1ffbc"/><path d="m279.675781 289.617188v23.957031h-181.667969v-23.957031c0-24.757813 18.964844-45.101563 43.140626-47.28125 4.597656-.441407 14.390624-.109376 18.628906-.210938 1.152344-.027344 2.234375.542969 2.875 1.503906.003906.003906.007812.011719.011718.015625 13.613282 20.519531 16.84375 25.371094 17.476563 26.335938 0 0 .007813 0 .007813.007812.011718.011719.023437.023438.023437.03125h-.011719c.011719.011719.019532.023438.042969.042969.007813.03125.03125.050781.039063.0625 0 .011719.011718.03125.03125.050781 0 0 .011718.011719 0 .011719 4.144531 6.230469 13.011718 6.199219 17.136718 0 0 0 .019532-.042969.0625-.09375v-.011719l.019532-.019531c.484374-.738281 3.460937-5.210938 17.535156-26.421875.628906-.949219 1.691406-1.511719 2.832031-1.507813 1.59375.011719 5.144531-.03125 14.347656-.003906 26.097657 0 47.46875 21.164063 47.46875 47.488282zm0 0" fill="#f29500"/><path d="m279.675781 289.617188v23.957031h-152.589843v-23.957031c0-22.109376 15.121093-40.699219 35.578124-45.972657 13.613282 20.519531 16.84375 25.371094 17.476563 26.335938 0 0 .011719 0 .011719.007812.007812.011719.019531.023438.019531.03125.011719.011719.019531.03125.03125.042969.011719.03125.03125.050781.042969.0625l.03125.042969v.007812s.007812.011719 0 .011719c4.140625 6.230469 13.011718 6.199219 17.132812 0 0 0 .019532-.042969.0625-.09375v-.011719l.019532-.019531c.5-.757812 3.613281-5.441406 18.621093-28.058594 1.140625.226563.394531.082032 16.097657.125 26.09375 0 47.464843 21.164063 47.464843 47.488282zm0 0" fill="#ffa90b"/></svg>