<svg width="68px" height="63px" viewBox="0 0 68 63" version="1.1" xmlns="http://www.w3.org/2000/svg"
     xmlns:xlink="http://www.w3.org/1999/xlink">
    <!-- Generator: Sketch 48.1 (47250) - http://www.bohemiancoding.com/sketch -->
    <desc>Created with Sketch.</desc>
    <defs>
        <rect id="path-1" x="76" y="116" width="68" height="53" rx="4"></rect>
        <path d="M76,158 L144,158 L144,163.87223 C144,165.655267 143.814349,166.30184 143.465735,166.953691 C143.11712,167.605543 142.605543,168.11712 141.953691,168.465735 C141.30184,168.814349 140.655267,169 138.87223,169 L81.1277704,169 C79.3447329,169 78.6981604,168.814349 78.0463086,168.465735 C77.3944567,168.11712 76.8828796,167.605543 76.5342654,166.953691 C76.1856512,166.30184 76,165.655267 76,163.87223 L76,158 Z"
              id="path-2"></path>
        <path d="M80,116 L86,116 L86,169 L80,169 C77.790861,169 76,167.209139 76,165 L76,120 C76,117.790861 77.790861,116 80,116 Z"
              id="path-3"></path>
    </defs>
    <g id="Page-1" stroke="none" stroke-width="1" fill="none" fill-rule="evenodd">
        <g id="Q3-Static" transform="translate(-406.000000, -676.000000)">
            <g id="Group-64" transform="translate(330.000000, 560.000000)">
                <path d="M93.5,177.5 L126.515148,177.5" id="Line-3" stroke="#3FABFF" stroke-width="2"
                      stroke-linecap="round"></path>
                <path d="M103,178 L103,167 M117,167 L117,178" id="Rectangle-4" stroke="#3FABFF" stroke-width="2"></path>
                <g id="Rectangle-3">
                    <use fill-opacity="0.170000002" fill="#3FABFF" fill-rule="evenodd" xlink:href="#path-1"></use>
                    <rect stroke="#3FABFF" stroke-width="2" x="77" y="117" width="66" height="51" rx="4"></rect>
                </g>
                <g id="Rectangle-3">
                    <use fill="#FCFCFC" fill-rule="evenodd" xlink:href="#path-2"></use>
                    <path stroke="#3FABFF" stroke-width="2"
                          d="M77,159 L77,163.87223 C77,165.346898 77.10796,165.905961 77.4160786,166.482093 C77.671493,166.959676 78.0403241,167.328507 78.5179075,167.583921 C79.0940392,167.89204 79.6531019,168 81.1277704,168 L138.87223,168 C140.346898,168 140.905961,167.89204 141.482093,167.583921 C141.959676,167.328507 142.328507,166.959676 142.583921,166.482093 C142.89204,165.905961 143,165.346898 143,163.87223 L143,159 L77,159 Z"></path>
                </g>
                <g id="Rectangle-3">
                    <use fill="#FFFFFF" fill-rule="evenodd" xlink:href="#path-3"></use>
                    <path stroke="#3FABFF" stroke-width="2"
                          d="M85,168 L85,117 L80,117 C78.3431458,117 77,118.343146 77,120 L77,165 C77,166.656854 78.3431458,168 80,168 L85,168 Z"></path>
                </g>
                <circle id="Oval" fill="#3FABFF" cx="110.5" cy="163.5" r="1.5"></circle>
            </g>
        </g>
    </g>
</svg>