<?xml version="1.0" encoding="utf-8"?>
<!-- Generator: Adobe Illustrator 16.0.0, SVG Export Plug-In . SVG Version: 6.00 Build 0)  -->
<!DOCTYPE svg PUBLIC "-//W3C//DTD SVG 1.1//EN" "http://www.w3.org/Graphics/SVG/1.1/DTD/svg11.dtd">
<svg version="1.1" id="Layer_1" xmlns="http://www.w3.org/2000/svg" xmlns:xlink="http://www.w3.org/1999/xlink" x="0px" y="0px"
	 width="32.875px" height="43.875px" viewBox="0 0 32.875 43.875" enable-background="new 0 0 32.875 43.875" xml:space="preserve">
<g>
	<path fill="#F8A01D" d="M26.567,25.875c-0.182-0.236-0.359-0.465-0.555-0.72c-1.059-1.384-2.289-2.987-3.67-4.338
		c0.432-0.606,0.746-1.289,0.814-2.521c0.125-1.958-0.51-2.359-1.135-2.359c-0.35,0-0.912,0.094-0.975,0.828
		c-0.02,0.236,0,0.984-0.078,1.297c-0.01,0.333-0.209,0.761-0.508,1.182c-1.018-0.703-2.102-1.189-3.248-1.333l0.003-0.032
		c-0.117-0.011-0.231-0.005-0.348-0.008c-0.073-0.004-0.147-0.004-0.222-0.005c-0.099,0.001-0.197,0-0.294,0.006
		c-0.107,0.004-0.213-0.003-0.32,0.007l0.003,0.029c-0.696,0.085-1.37,0.297-2.018,0.609c-0.104-0.337-0.177-0.689-0.185-1.059
		c-0.059-2.667,2.457-4.667,5.083-4.042l0.066-5.667h2.225L26.458,0H6.625l5.25,7.75h2.209v2.125c0,0-3.678,0.813-4.875,4.792
		c-0.334,1.927-0.303,3.833,0.822,5.708c0,0,0.182,0.322,0.543,0.771c-1.246,1.279-2.362,2.736-3.336,4.01
		c-0.195,0.255-0.373,0.483-0.556,0.72H0v18h32.875v-18H26.567z M12.005,22.541c1.039,0.788,2.498,1.491,4.401,1.491
		c0.828,0.021,3.094-0.323,3.594-0.906c-0.625-0.709-1.336-1.22-2.25-2.167c-0.168,0.025-0.213,0.009-0.391,0.01
		c-0.884,0.007-1.631-0.288-2.216-0.761c0.433-0.181,0.87-0.303,1.31-0.338c0.048-0.001,0.095-0.002,0.143-0.001
		c0.066-0.002,0.133,0,0.199,0.001c2.643,0.213,5.247,3.401,7.249,6.006H9.207C10.049,24.778,10.994,23.579,12.005,22.541z
		 M30.063,40.75H3.125V28.938h26.938V40.75z"/>
	<polygon fill="#F8A01D" points="24.063,39.688 26,39.688 26,36.688 28.042,36.688 25.042,32.688 25.032,32.688 22.032,36.688 
		24.063,36.688 	"/>
</g>
</svg>
