<?xml version="1.0" encoding="utf-8"?>
<!-- Generator: Adobe Illustrator 16.0.0, SVG Export Plug-In . SVG Version: 6.00 Build 0)  -->
<!DOCTYPE svg PUBLIC "-//W3C//DTD SVG 1.1//EN" "http://www.w3.org/Graphics/SVG/1.1/DTD/svg11.dtd">
<svg version="1.1" id="Layer_1" xmlns="http://www.w3.org/2000/svg" xmlns:xlink="http://www.w3.org/1999/xlink" x="0px" y="0px"
	 width="42.348px" height="49.292px" viewBox="0 0 42.348 49.292" enable-background="new 0 0 42.348 49.292" xml:space="preserve">
<g>
	<path fill="#F8A01D" d="M21.259,0l-20.9,12.289L0,37.533l21.276,11.76L42.26,37.276l0.088-24.981L21.259,0z M21.183,22.029
		l-5.41-2.961l15.91-9.52l6.014,3.506L21.183,22.029z M21.267,3.477l4.513,2.631L9.688,15.737l-4.804-2.629L21.267,3.477z
		 M3.311,15.666l5.267,2.883l-0.156,4.984l1.605-1.043l1.137,2.022l1.153-0.83l1.886,2.552l0.467-4.35l5.014,2.745l0.071,20.395
		L3.025,35.777L3.311,15.666z M22.754,44.988l-0.072-20.36l16.654-9.051l-0.07,19.956L22.754,44.988z"/>
	<path fill="#F8A01D" d="M36.688,33.3l-10.916,6c-0.242,0.133-0.33,0.437-0.197,0.678c0.09,0.166,0.262,0.26,0.438,0.26
		c0.082,0,0.164-0.02,0.24-0.063l10.918-6c0.242-0.133,0.33-0.437,0.197-0.678C37.235,33.255,36.928,33.167,36.688,33.3z"/>
	<polygon fill="#F8A01D" points="27.387,36.654 29.45,35.716 29.262,28.341 30.387,27.841 28.2,25.029 26.012,29.466 27.262,29.091 
			"/>
	<polygon fill="#F8A01D" points="33.387,33.56 35.45,32.623 35.262,25.248 36.387,24.748 34.2,21.936 32.012,26.373 33.262,25.998 	
		"/>
</g>
</svg>
