<?xml version="1.0" encoding="utf-8"?>
<!-- Generator: Adobe Illustrator 16.0.0, SVG Export Plug-In . SVG Version: 6.00 Build 0)  -->
<!DOCTYPE svg PUBLIC "-//W3C//DTD SVG 1.1//EN" "http://www.w3.org/Graphics/SVG/1.1/DTD/svg11.dtd">
<svg version="1.1" id="Layer_1" xmlns="http://www.w3.org/2000/svg" xmlns:xlink="http://www.w3.org/1999/xlink" x="0px" y="0px"
	 width="47.733px" height="34.505px" viewBox="0 0 47.733 34.505" enable-background="new 0 0 47.733 34.505" xml:space="preserve">
<g>
	<polygon fill="#F8A01D" points="15.41,0 15.41,12.076 18.17,12.076 18.17,2.76 26.68,2.76 26.68,8.701 29.168,5.734 31.389,7.876 
		33.272,5.691 35.881,8.767 35.881,2.76 44.959,2.76 44.856,24.871 41.026,24.956 41.086,27.714 47.604,27.57 47.733,0 	"/>
	<circle fill="#F8A01D" cx="36.57" cy="21.39" r="1.38"/>
	<circle fill="#F8A01D" cx="41.171" cy="21.39" r="1.38"/>
	<path fill="#F8A01D" d="M36.651,25.966c-0.531,0-1.158,0.031-2.041,0.104c-0.051,0.004-5.092,0.48-7.926,0.48
		c-0.902,0-1.324-0.049-1.453-0.071c-1.656-0.612-3.807-2.163-4.25-3.407c-0.115-0.323-0.102-0.596,0.07-0.896
		c0.227-0.565,0.783-0.684,1.211-0.684c0.412,0,0.879,0.111,1.309,0.314c0.848,0.398,3.18,1.374,4.996,1.191
		c0.689-0.068,1.674-0.444,2.197-1.105c0.295-0.373,0.42-0.806,0.363-1.191c0-1.02-1.574-1.597-3.398-2.264
		c-0.484-0.178-0.971-0.355-1.408-0.537c-1.279-0.533-2.373-0.999-3.332-1.406c-4.721-2.01-6.148-2.616-9.511-2.616
		c-0.001,0-0.002,0-0.003,0c-1.648,0.067-2.614,0.244-3.636,0.431c-1.681,0.309-3.614,0.664-9.372,0.566
		c-0.138-0.006-0.242,0.045-0.329,0.131C0.05,15.092,0,15.21,0,15.333v9.047c0,0.129,0.055,0.254,0.151,0.34
		c0.095,0.088,0.224,0.129,0.352,0.117c0.01,0,0.943-0.088,2.074-0.088c1.502,0,2.641,0.15,3.296,0.437
		c2.86,1.247,6.118,3.493,8.993,5.477c3.113,2.147,5.572,3.843,6.875,3.843c0.055,0,0.107-0.002,0.236-0.022
		c0.121-0.034,12.143-3.458,14.943-4.214c1.531-0.414,3.027-1.496,2.787-2.672C39.454,26.16,38.02,25.966,36.651,25.966z"/>
</g>
</svg>
