<?xml version="1.0" encoding="utf-8"?>
<!-- Generator: Adobe Illustrator 16.0.0, SVG Export Plug-In . SVG Version: 6.00 Build 0)  -->
<!DOCTYPE svg PUBLIC "-//W3C//DTD SVG 1.1//EN" "http://www.w3.org/Graphics/SVG/1.1/DTD/svg11.dtd">
<svg version="1.1" id="Layer_1" xmlns="http://www.w3.org/2000/svg" xmlns:xlink="http://www.w3.org/1999/xlink" x="0px" y="0px"
	 width="37.02px" height="35.235px" viewBox="0 0 37.02 35.235" enable-background="new 0 0 37.02 35.235" xml:space="preserve">
<g>
	<g>
		<path fill="#F8A11F" d="M36.789,24.043c-0.375-2.211-1.967-2.512-2.652-2.537c-0.193-0.006-0.371-0.109-0.475-0.272
			c-0.52-0.818-1.223-1.033-1.819-1.033c-0.274,0-0.524,0.045-0.725,0.099c-0.058,0.016-0.118,0.023-0.177,0.023
			c-0.211,0-0.414-0.098-0.541-0.272c-0.512-0.708-1.178-0.899-1.749-0.899c-0.152,0-0.298,0.014-0.433,0.035
			c-0.036,0.005-0.071,0.008-0.107,0.008c-0.365,0-0.674-0.297-0.674-0.675l-0.005-4.09c-0.001-1.057-0.794-1.585-1.587-1.585
			c-0.794,0-1.588,0.53-1.587,1.589c0.003,1.775,0.009,7.109,0.012,8.714c0,0.271-0.163,0.518-0.413,0.622
			c-3.148,1.315,0.738,7.217,1.435,8.229c0.067,0.099,0.108,0.214,0.117,0.333l0.17,2.271c0.026,0.353,0.321,0.633,0.675,0.633
			h0.001l7.604-0.016c0.34-0.001,0.626-0.257,0.671-0.593l0.31-2.361c0.014-0.099,0.049-0.196,0.104-0.28
			C36.977,28.843,37.136,26.092,36.789,24.043L36.789,24.043z M36.789,24.043"/>
	</g>
</g>
<path fill="#F8A11F" d="M20.886,24.684H3.193V3.193h30.634v15.69c0.321,0.154,0.634,0.412,0.899,0.83
	c0.104,0.164,0.281,0.266,0.475,0.273c0.426,0.016,1.203,0.139,1.818,0.76V2.129C37.02,0.953,36.066,0,34.891,0H2.128
	C0.953,0,0,0.953,0,2.129v23.62c0,1.175,0.953,2.128,2.128,2.128h18.97C20.67,26.697,20.48,25.521,20.886,24.684z"/>
</svg>
