<?xml version="1.0" encoding="utf-8"?>
<!-- Generator: Adobe Illustrator 16.0.0, SVG Export Plug-In . SVG Version: 6.00 Build 0)  -->
<!DOCTYPE svg PUBLIC "-//W3C//DTD SVG 1.1//EN" "http://www.w3.org/Graphics/SVG/1.1/DTD/svg11.dtd">
<svg version="1.1" id="Layer_1" xmlns="http://www.w3.org/2000/svg" xmlns:xlink="http://www.w3.org/1999/xlink" x="0px" y="0px"
	 width="37.587px" height="45.521px" viewBox="0 0 37.587 45.521" enable-background="new 0 0 37.587 45.521" xml:space="preserve">
<g>
	<path fill="#F8A01D" d="M35.644,15.376c2.764-4.208,1.809-13.194,1.684-15.321l0.024-0.033c-0.007,0.001-0.02,0.004-0.026,0.005
		c0-0.007-0.002-0.02-0.002-0.027l-0.025,0.034c-2.076,0.477-10.969,2.085-14.23,5.92c-1.631,1.824-4.06,6.329-6.645,11.266
		c-4.346,8.301-8.805,16.773-8.805,16.773l2.256,1.671l6.163-8.504l1.263,0.947l-6.429,8.303l2.197,1.646
		c0,0,6.884-6.635,13.631-13.139C30.71,21.051,34.351,17.453,35.644,15.376z M27.996,12.484c-1.49-1.118-1.795-3.233-0.677-4.725
		s3.233-1.795,4.725-0.677s1.796,3.233,0.678,4.725C31.604,13.298,29.488,13.602,27.996,12.484z"/>
	<polygon fill="#F8A01D" points="3.235,45.508 11.943,39.712 7.804,39.404 6.346,35.518 3.229,45.504 3.221,45.517 3.228,45.513 
		3.226,45.521 	"/>
	<path fill="#F8A01D" d="M22.621,32.757c0,0,1.836,8.131-5.431,12.096c-0.22-2-0.897-6.256-0.897-6.256L22.621,32.757z"/>
	<path fill="#F8A01D" d="M10.083,23.363c0,0-8.319,0.523-10.083,8.612c1.981-0.352,6.256-0.897,6.256-0.897L10.083,23.363z"/>
</g>
</svg>
