<?xml version="1.0" encoding="utf-8"?>
<!-- Generator: Adobe Illustrator 16.0.0, SVG Export Plug-In . SVG Version: 6.00 Build 0)  -->
<!DOCTYPE svg PUBLIC "-//W3C//DTD SVG 1.1//EN" "http://www.w3.org/Graphics/SVG/1.1/DTD/svg11.dtd">
<svg version="1.1" id="Layer_1" xmlns="http://www.w3.org/2000/svg" xmlns:xlink="http://www.w3.org/1999/xlink" x="0px" y="0px"
	 width="41.602px" height="41.829px" viewBox="0 0 41.602 41.829" enable-background="new 0 0 41.602 41.829" xml:space="preserve">
<g>
	<path fill="#F8A01D" d="M22.208,3.22V1.313C22.208,0.588,21.62,0,20.895,0c-0.725,0-1.313,0.588-1.313,1.313v1.893
		C3.31,4.487-0.307,13.683,0.02,19.704c1.125-1.833,3.981-2.666,6.063-2.25c2.188,0.438,3.646,2.708,4.313,4.625
		c0.458-0.791,1.979-3.811,5.313-3.718c3.28-0.082,4.672,3.593,5.082,4.783c0.001,0.018,0.001,0.045,0.002,0.061
		c0.002-0.008,0.007-0.02,0.01-0.029c0.003,0.01,0.008,0.021,0.01,0.029c0.001-0.016,0.001-0.043,0.002-0.061
		c0.41-1.189,1.801-4.865,5.083-4.783c3.334-0.093,4.854,2.927,5.313,3.718c0.666-1.916,2.125-4.187,4.313-4.625
		c2.08-0.416,4.938,0.417,6.063,2.25C41.907,13.706,38.319,4.559,22.208,3.22z"/>
	<path fill="#F8A01D" d="M19.28,27.721c-0.003,0.034-0.011,0.067-0.011,0.103c0,0.062-0.022,6.187-0.062,7.589
		c-0.069,2.49-0.883,3.416-3.001,3.416c-0.637,0-1.519-0.123-2.098-0.715c-0.495-0.504-0.735-1.306-0.715-2.41
		c0-0.604,0.019-1.066,0.04-1.633l0.021-0.563c0.029-0.828-0.617-1.523-1.445-1.553c-0.823-0.022-1.522,0.616-1.553,1.445
		l-0.021,0.553c-0.024,0.607-0.043,1.102-0.043,1.722c-0.046,2.38,0.83,3.782,1.573,4.54c1.036,1.056,2.502,1.613,4.239,1.613
		c2.175,0,5.846-0.822,5.999-6.332c0.029-1.037,0.049-4.416,0.059-6.324h0.006v-4h-2.99V27.721z"/>
</g>
</svg>
