<?xml version="1.0" encoding="UTF-8"?>
<svg width="36px" height="29px" viewBox="0 0 36 29" version="1.1" xmlns="http://www.w3.org/2000/svg" xmlns:xlink="http://www.w3.org/1999/xlink">
    <!-- Generator: Sketch 47.1 (45422) - http://www.bohemiancoding.com/sketch -->
    <title>Group 2</title>
    <desc>Created with Sketch.</desc>
    <defs>
        <rect id="path-1" x="10" y="11" width="26" height="18" rx="2"></rect>
        <path d="M12,11 L34,11 L34,11 C35.1045695,11 36,11.8954305 36,13 L36,25 L10,25 L10,13 L10,13 C10,11.8954305 10.8954305,11 12,11 Z" id="path-2"></path>
        <rect id="path-3" x="0" y="0" width="26" height="18" rx="2"></rect>
        <rect id="path-4" x="0" y="0" width="26" height="8" rx="2"></rect>
    </defs>
    <g id="Page-1" stroke="none" stroke-width="1" fill="none" fill-rule="evenodd">
        <g id="Mobile" transform="translate(-8.000000, -12.000000)">
            <g id="Group-2" transform="translate(8.000000, 12.000000)">
                <g id="Rectangle-12">
                    <use fill="#FFFFFF" fill-rule="evenodd" xlink:href="#path-1"></use>
                    <rect stroke="#FF6F18" stroke-width="1.5" x="10.75" y="11.75" width="24.5" height="16.5" rx="2"></rect>
                </g>
                <g id="Rectangle-12">
                    <use fill="#FFE7D8" fill-rule="evenodd" xlink:href="#path-2"></use>
                    <path stroke="#FF6F18" stroke-width="1.5" d="M10.75,24.25 L35.25,24.25 L35.25,13 C35.25,12.3096441 34.6903559,11.75 34,11.75 L12,11.75 C11.3096441,11.75 10.75,12.3096441 10.75,13 L10.75,24.25 Z"></path>
                </g>
                <g id="Rectangle-12">
                    <use fill="#FFFFFF" fill-rule="evenodd" xlink:href="#path-3"></use>
                    <rect stroke="#FF6F18" stroke-width="1.5" x="0.75" y="0.75" width="24.5" height="16.5" rx="2"></rect>
                </g>
                <g id="Rectangle-12">
                    <use fill="#FFE7D8" fill-rule="evenodd" xlink:href="#path-4"></use>
                    <rect stroke="#FF6F18" stroke-width="1.5" x="0.75" y="0.75" width="24.5" height="6.5" rx="2"></rect>
                </g>
                <g id="Group" transform="translate(4.000000, 12.000000)" stroke="#FF6F18" stroke-width="1.5" stroke-linecap="round" stroke-linejoin="round">
                    <path d="M0.409090909,1.5 L3.06818182,1.5" id="Line"></path>
                    <path d="M5.31818182,1.5 L7.97727273,1.5" id="Line"></path>
                    <path d="M10.2272727,1.5 L12.8863636,1.5" id="Line"></path>
                    <path d="M15.1363636,1.5 L17.7954545,1.5" id="Line"></path>
                </g>
                <circle id="Oval-5" stroke="#FF6F18" stroke-width="1.5" fill="#FFFFFF" cx="20" cy="7" r="2"></circle>
                <path d="M30,21 L32.6590909,21" id="Line" stroke="#FF6F18" stroke-width="1.5" stroke-linecap="round" stroke-linejoin="round"></path>
            </g>
        </g>
    </g>
</svg>