<?xml version="1.0" encoding="UTF-8"?>
<svg width="41px" height="37px" viewBox="0 0 41 37" version="1.1" xmlns="http://www.w3.org/2000/svg" xmlns:xlink="http://www.w3.org/1999/xlink">
    <!-- Generator: Sketch 47.1 (45422) - http://www.bohemiancoding.com/sketch -->
    <title>Group 5</title>
    <desc>Created with Sketch.</desc>
    <defs>
        <rect id="path-1" x="4" y="3" width="33" height="29" rx="1"></rect>
        <mask id="mask-2" maskContentUnits="userSpaceOnUse" maskUnits="objectBoundingBox" x="0" y="0" width="33" height="29" fill="white">
            <use xlink:href="#path-1"></use>
        </mask>
        <rect id="path-3" x="0.555555556" y="0.333333333" width="15" height="10.6666667" rx="1"></rect>
        <path d="M1.55555556,0.333333333 L14.5555556,0.333333333 L14.5555556,0.333333333 C15.1078403,0.333333333 15.5555556,0.781048584 15.5555556,1.33333333 L15.5555556,4.77777778 L0.555555556,4.77777778 L0.555555556,1.33333333 L0.555555556,1.33333333 C0.555555556,0.781048584 1.00327081,0.333333333 1.55555556,0.333333333 Z" id="path-4"></path>
        <path d="M2,0 L22,0 L22,0 C22.5522847,-2.06356265e-15 23,0.44771525 23,1 L23,6.51555176 L23,12 L23,12 C23,12.5522847 22.5522847,13 22,13 L2,13 L2,13 C0.8954305,13 1.3527075e-16,12.1045695 0,11 L0,2 L0,2 C-1.3527075e-16,0.8954305 0.8954305,2.02906125e-16 2,0 Z" id="path-5"></path>
        <path d="M1,0 L6,0 L6,13 L1,13 L1,13 C0.44771525,13 6.76353751e-17,12.5522847 0,12 L0,1 L0,1 C-6.76353751e-17,0.44771525 0.44771525,1.01453063e-16 1,0 Z" id="path-6"></path>
        <rect id="path-7" x="0" y="0" width="21" height="20" rx="1"></rect>
        <path d="M1,0 L5.83333333,0 L5.83333333,20 L1,20 L1,20 C0.44771525,20 6.76353751e-17,19.5522847 0,19 L0,1 L0,1 C-6.76353751e-17,0.44771525 0.44771525,1.01453063e-16 1,0 Z" id="path-8"></path>
    </defs>
    <g id="Page-1" stroke="none" stroke-width="1" fill="none" fill-rule="evenodd">
        <g id="Mobile" transform="translate(-4.000000, -7.000000)">
            <g id="Group-5" transform="translate(4.000000, 7.000000)">
                <use id="Rectangle-3" stroke="#FFBD96" mask="url(#mask-2)" stroke-width="2" stroke-dasharray="1" xlink:href="#path-1"></use>
                <g id="Group-2" transform="translate(0.000000, 9.000000)">
                    <g id="Rectangle-5-Copy">
                        <use fill="#FFE7D8" fill-rule="evenodd" xlink:href="#path-3"></use>
                        <rect stroke="#FF6F18" stroke-width="1.5" x="1.30555556" y="1.08333333" width="13.5" height="9.16666667" rx="1"></rect>
                    </g>
                    <g id="Rectangle-5-Copy">
                        <use fill="#FFFFFF" fill-rule="evenodd" xlink:href="#path-4"></use>
                        <path stroke="#FF6F18" stroke-width="1.5" d="M1.30555556,4.02777778 L14.8055556,4.02777778 L14.8055556,1.33333333 C14.8055556,1.19526215 14.6936267,1.08333333 14.5555556,1.08333333 L1.55555556,1.08333333 C1.41748437,1.08333333 1.30555556,1.19526215 1.30555556,1.33333333 L1.30555556,4.02777778 Z"></path>
                    </g>
                </g>
                <g id="Group-3" transform="translate(9.000000, 24.000000)">
                    <g id="Rectangle-5">
                        <use fill="#FFE7D8" fill-rule="evenodd" xlink:href="#path-5"></use>
                        <path stroke="#FF6F18" stroke-width="1.5" d="M2,0.75 C1.30964406,0.75 0.75,1.30964406 0.75,2 L0.75,11 C0.75,11.6903559 1.30964406,12.25 2,12.25 L22,12.25 C22.1380712,12.25 22.25,12.1380712 22.25,12 L22.25,1 C22.25,0.861928813 22.1380712,0.75 22,0.75 L2,0.75 Z"></path>
                    </g>
                    <g id="Rectangle-6">
                        <use fill="#FFFFFF" fill-rule="evenodd" xlink:href="#path-6"></use>
                        <path stroke="#FF6F18" stroke-width="1.5" d="M5.25,12.25 L5.25,0.75 L1,0.75 C0.861928813,0.75 0.75,0.861928813 0.75,1 L0.75,12 C0.75,12.1380712 0.861928813,12.25 1,12.25 L5.25,12.25 Z"></path>
                    </g>
                    <path d="M9.27777778,8.83333333 L14.8333333,8.83333333" id="Line-4" stroke="#FF6F18" stroke-width="1.5" stroke-linecap="round"></path>
                </g>
                <g id="Group-4" transform="translate(20.000000, 0.000000)">
                    <g id="Group">
                        <g id="Rectangle-5-Copy">
                            <use fill="#FFE7D8" fill-rule="evenodd" xlink:href="#path-7"></use>
                            <rect stroke="#FF6F18" stroke-width="1.5" x="0.75" y="0.75" width="19.5" height="18.5" rx="1"></rect>
                        </g>
                        <g id="Rectangle-6">
                            <use fill="#FFFFFF" fill-rule="evenodd" xlink:href="#path-8"></use>
                            <path stroke="#FF6F18" stroke-width="1.5" d="M5.08333333,19.25 L5.08333333,0.75 L1,0.75 C0.861928813,0.75 0.75,0.861928813 0.75,1 L0.75,19 C0.75,19.1380712 0.861928813,19.25 1,19.25 L5.08333333,19.25 Z"></path>
                        </g>
                    </g>
                    <path d="M11.3181818,6 L17.6818182,6" id="Line-4" stroke="#FF6F18" stroke-width="1.5" stroke-linecap="round"></path>
                </g>
            </g>
        </g>
    </g>
</svg>