<?xml version="1.0" encoding="UTF-8"?>
<svg width="40px" height="34px" viewBox="0 0 40 34" version="1.1" xmlns="http://www.w3.org/2000/svg" xmlns:xlink="http://www.w3.org/1999/xlink">
    <!-- Generator: Sketch 47.1 (45422) - http://www.bohemiancoding.com/sketch -->
    <title>Group</title>
    <desc>Created with Sketch.</desc>
    <defs>
        <path d="M1,20.5555556 L18.5555556,20.5555556 L18.5555556,20.5555556 C19.6601251,20.5555556 20.5555556,21.4509861 20.5555556,22.5555556 L20.5555556,31.8888889 L20.5555556,31.8888889 C20.5555556,32.9934584 19.6601251,33.8888889 18.5555556,33.8888889 L1,33.8888889 L1,33.8888889 C0.44771525,33.8888889 6.76353751e-17,33.4411736 0,32.8888889 L0,21.5555556 L0,21.5555556 C-6.76353751e-17,21.0032708 0.44771525,20.5555556 1,20.5555556 Z" id="path-1"></path>
        <rect id="path-2" x="19.4444444" y="0" width="20.5555556" height="33.8888889" rx="1"></rect>
        <rect id="path-3" x="5.55555556" y="8.33333333" width="15" height="13.3333333" rx="2"></rect>
        <path d="M6.55555556,8.33333333 L19.5555556,8.33333333 L19.5555556,8.33333333 C20.1078403,8.33333333 20.5555556,8.78104858 20.5555556,9.33333333 L20.5555556,12.7777778 L5.55555556,12.7777778 L5.55555556,9.33333333 L5.55555556,9.33333333 C5.55555556,8.78104858 6.00327081,8.33333333 6.55555556,8.33333333 Z" id="path-4"></path>
        <path d="M17.6666667,0 L24.4444444,0 L24.4444444,33.8888889 L17.6666667,33.8888889 L17.6666667,33.8888889 C17.1143819,33.8888889 16.6666667,33.4411736 16.6666667,32.8888889 L16.6666667,1 L16.6666667,1 C16.6666667,0.44771525 17.1143819,1.01453063e-16 17.6666667,0 Z" id="path-5"></path>
    </defs>
    <g id="Page-1" stroke="none" stroke-width="1" fill="none" fill-rule="evenodd">
        <g id="Mobile" transform="translate(-5.000000, -8.000000)">
            <g id="Group" transform="translate(5.000000, 8.000000)">
                <g id="Rectangle-5">
                    <use fill="#FFE7D8" fill-rule="evenodd" xlink:href="#path-1"></use>
                    <path stroke="#FF6F18" stroke-width="1.5" d="M1,21.3055556 C0.861928813,21.3055556 0.75,21.4174844 0.75,21.5555556 L0.75,32.8888889 C0.75,33.0269601 0.861928813,33.1388889 1,33.1388889 L18.5555556,33.1388889 C19.2459115,33.1388889 19.8055556,32.5792448 19.8055556,31.8888889 L19.8055556,22.5555556 C19.8055556,21.8651996 19.2459115,21.3055556 18.5555556,21.3055556 L1,21.3055556 Z"></path>
                </g>
                <g id="Rectangle-5-Copy">
                    <use fill="#FFE7D8" fill-rule="evenodd" xlink:href="#path-2"></use>
                    <rect stroke="#FF6F18" stroke-width="1.5" x="20.1944444" y="0.75" width="19.0555556" height="32.3888889" rx="1"></rect>
                </g>
                <g id="Rectangle-5-Copy">
                    <use fill="#FFE7D8" fill-rule="evenodd" xlink:href="#path-3"></use>
                    <rect stroke="#FF6F18" stroke-width="1.5" x="6.30555556" y="9.08333333" width="13.5" height="11.8333333" rx="2"></rect>
                </g>
                <g id="Rectangle-5-Copy">
                    <use fill="#FFFFFF" fill-rule="evenodd" xlink:href="#path-4"></use>
                    <path stroke="#FF6F18" stroke-width="1.5" d="M6.30555556,12.0277778 L19.8055556,12.0277778 L19.8055556,9.33333333 C19.8055556,9.19526215 19.6936267,9.08333333 19.5555556,9.08333333 L6.55555556,9.08333333 C6.41748437,9.08333333 6.30555556,9.19526215 6.30555556,9.33333333 L6.30555556,12.0277778 Z"></path>
                </g>
                <g id="Rectangle-6">
                    <use fill="#FFFFFF" fill-rule="evenodd" xlink:href="#path-5"></use>
                    <path stroke="#FF6F18" stroke-width="1.5" d="M23.6944444,33.1388889 L23.6944444,0.75 L17.6666667,0.75 C17.5285955,0.75 17.4166667,0.861928813 17.4166667,1 L17.4166667,32.8888889 C17.4166667,33.0269601 17.5285955,33.1388889 17.6666667,33.1388889 L23.6944444,33.1388889 Z"></path>
                </g>
                <path d="M4.05555556,29.8333333 L9.61111111,29.8333333" id="Line-4" stroke="#FF6F18" stroke-width="1.5" stroke-linecap="round"></path>
                <path d="M4.05555556,27.1666667 L9.61111111,27.1666667" id="Line-4" stroke="#FF6F18" stroke-width="1.5" stroke-linecap="round"></path>
                <path d="M30.3888889,5.16666667 L35.9444444,5.16666667" id="Line-4" stroke="#FF6F18" stroke-width="1.5" stroke-linecap="round"></path>
                <path d="M32.6111111,7.83333333 L35.9444444,7.83333333" id="Line-4" stroke="#FF6F18" stroke-width="1.5" stroke-linecap="round"></path>
            </g>
        </g>
    </g>
</svg>