<?xml version="1.0" encoding="UTF-8"?>
<svg width="32px" height="31px" viewBox="0 0 32 31" version="1.1" xmlns="http://www.w3.org/2000/svg" xmlns:xlink="http://www.w3.org/1999/xlink">
    <!-- Generator: Sketch 47.1 (45422) - http://www.bohemiancoding.com/sketch -->
    <title>Group</title>
    <desc>Created with Sketch.</desc>
    <defs>
        <rect id="path-1" x="5.63636364" y="0" width="25.8163934" height="31" rx="1"></rect>
        <path d="M1,0 L7.51515152,0 L7.51515152,31 L1,31 L1,31 C0.44771525,31 6.76353751e-17,30.5522847 0,30 L0,1 L0,1 C-6.76353751e-17,0.44771525 0.44771525,1.01453063e-16 1,0 Z" id="path-2"></path>
    </defs>
    <g id="Page-1" stroke="none" stroke-width="1" fill="none" fill-rule="evenodd">
        <g id="Mobile" transform="translate(-9.000000, -8.000000)">
            <g id="Group" transform="translate(9.000000, 8.000000)">
                <g id="Rectangle-5-Copy">
                    <use fill="#FFE7D8" fill-rule="evenodd" xlink:href="#path-1"></use>
                    <rect stroke="#FF6F18" stroke-width="1.5" x="6.38636364" y="0.75" width="24.3163934" height="29.5" rx="1"></rect>
                </g>
                <g id="Rectangle-6">
                    <use fill="#FFFFFF" fill-rule="evenodd" xlink:href="#path-2"></use>
                    <path stroke="#FF6F18" stroke-width="1.5" d="M6.76515152,30.25 L6.76515152,0.75 L1,0.75 C0.861928813,0.75 0.75,0.861928813 0.75,1 L0.75,30 C0.75,30.1380712 0.861928813,30.25 1,30.25 L6.76515152,30.25 Z"></path>
                </g>
                <path d="M22.0428872,26.1464646 L28.0252525,26.1464646" id="Line-4" stroke="#FF6F18" stroke-width="1.5" stroke-linecap="round"></path>
                <path d="M22.0428872,23.3282828 L28.0252525,23.3282828" id="Line-4-Copy" stroke="#FF6F18" stroke-width="1.5" stroke-linecap="round"></path>
                <path d="M24.4242424,0.939393939 L31,0.939393939 L31,6.57575758 L30.0606061,6.57575758 L30.0606061,6.57575758 C26.9477284,6.57575758 24.4242424,4.05227162 24.4242424,0.939393939 L24.4242424,0.939393939 Z" id="Rectangle-7" fill="#FF6F18" opacity="0.309499547"></path>
                <path d="M6.57575758,0.939393939 L13.1515152,0.939393939 L13.1515152,6.57575758 L12.2121212,6.57575758 L12.2121212,6.57575758 C9.09924353,6.57575758 6.57575758,4.05227162 6.57575758,0.939393939 L6.57575758,0.939393939 Z" id="Rectangle-7-Copy" fill="#FF6F18" opacity="0.309499547" transform="translate(9.863636, 3.757576) scale(-1, 1) translate(-9.863636, -3.757576) "></path>
                <path d="M0,0.939393939 L6.57575758,0.939393939 L6.57575758,6.57575758 L5.63636364,6.57575758 L5.63636364,6.57575758 C2.52348596,6.57575758 3.81217569e-16,4.05227162 0,0.939393939 L0,0.939393939 Z" id="Rectangle-7-Copy" fill="#FF6F18" opacity="0.108865489"></path>
                <path d="M7.51515152,24.4242424 L14.0909091,24.4242424 L14.0909091,30.0606061 L13.1515152,30.0606061 L13.1515152,30.0606061 C10.0386375,30.0606061 7.51515152,27.5371201 7.51515152,24.4242424 L7.51515152,24.4242424 Z" id="Rectangle-7-Copy-2" fill="#FF6F18" opacity="0.309499547" transform="translate(10.803030, 27.242424) scale(-1, -1) translate(-10.803030, -27.242424) "></path>
                <path d="M0.939393939,24.4242424 L7.51515152,24.4242424 L7.51515152,30.0606061 L6.57575758,30.0606061 L6.57575758,30.0606061 C3.46287989,30.0606061 0.939393939,27.5371201 0.939393939,24.4242424 L0.939393939,24.4242424 Z" id="Rectangle-7-Copy-2" fill="#FF6F18" opacity="0.11" transform="translate(4.227273, 27.242424) scale(1, -1) translate(-4.227273, -27.242424) "></path>
                <path d="M14.0909091,2.81818182 L18.7272727,2.81818182 L18.7272727,2.81818182 C19.2795575,2.81818182 19.7272727,3.26589707 19.7272727,3.81818182 L19.7272727,4.63636364 L19.7272727,4.63636364 C19.7272727,5.18864839 19.2795575,5.63636364 18.7272727,5.63636364 L14.0909091,5.63636364 L14.0909091,2.81818182 Z" id="Rectangle-4-Copy" fill="#FF6F18" transform="translate(16.909091, 4.227273) rotate(-270.000000) translate(-16.909091, -4.227273) "></path>
                <path d="M6.76515152,30.25 L6.76515152,0.75 L1,0.75 C0.861928813,0.75 0.75,0.861928813 0.75,1 L0.75,30 C0.75,30.1380712 0.861928813,30.25 1,30.25 L6.76515152,30.25 Z" id="Rectangle-6" stroke="#FF6F18" stroke-width="1.5"></path>
            </g>
        </g>
    </g>
</svg>