<?xml version="1.0" encoding="UTF-8"?>
<svg width="31px" height="42px" viewBox="0 0 31 42" version="1.1" xmlns="http://www.w3.org/2000/svg" xmlns:xlink="http://www.w3.org/1999/xlink">
    <!-- Generator: Sketch 47.1 (45422) - http://www.bohemiancoding.com/sketch -->
    <title>Group 7</title>
    <desc>Created with Sketch.</desc>
    <defs>
        <rect id="path-1" x="0" y="0" width="31" height="37" rx="1"></rect>
        <path d="M1,4.51563362e-18 L23.5862069,1.06506669e-16 L23.5862069,0 C24.1384916,-1.01453063e-16 24.5862069,0.44771525 24.5862069,1 L24.5862069,25.8058983 L24.5862069,25.8058983 C24.5862069,26.09573 24.4604598,26.3713046 24.2415378,26.5612402 L20.5599793,29.7553419 L20.5599793,29.7553419 C20.3781126,29.9131286 20.1454224,30 19.9046484,30 L1,30 L1,30 C0.44771525,30 6.76353751e-17,29.5522847 0,29 L0,1 L0,1 C-6.76353751e-17,0.44771525 0.44771525,1.01453063e-16 1,0 Z" id="path-2"></path>
        <rect id="path-3" x="0" y="1" width="4.27586207" height="4" rx="1"></rect>
        <rect id="path-4" x="0" y="1" width="4.27586207" height="4" rx="1"></rect>
        <path d="M12.8275862,3 L9.55172414,3 L9.55172414,3 C8.99943939,3 8.55172414,3.44771525 8.55172414,4 L8.55172414,7 C8.55172414,7.55228475 8.99943939,8 9.55172414,8 L22.5172414,8 C23.0695261,8 23.5172414,7.55228475 23.5172414,7 L23.5172414,4 C23.5172414,3.44771525 23.0695261,3 22.5172414,3 L19.2413793,3 C19.2413793,1.34314575 17.8056028,0 16.0344828,0 C14.2633627,0 12.8275862,1.34314575 12.8275862,3 Z" id="path-5"></path>
    </defs>
    <g id="Page-1" stroke="none" stroke-width="1" fill="none" fill-rule="evenodd">
        <g id="Mobile" transform="translate(-10.000000, -3.000000)">
            <g id="Group-7" transform="translate(10.000000, 3.000000)">
                <g id="Group-5">
                    <g id="Group" transform="translate(0.000000, 5.000000)">
                        <g id="Rectangle-9">
                            <use fill="#FFFFFF" fill-rule="evenodd" xlink:href="#path-1"></use>
                            <rect stroke="#FF6F18" stroke-width="1" x="0.5" y="0.5" width="30" height="36" rx="1"></rect>
                        </g>
                    </g>
                    <g id="Group-4" transform="translate(3.206897, 9.000000)">
                        <g id="Group-2">
                            <g id="Group-3">
                                <g id="Rectangle-5-Copy">
                                    <use fill="#FFE7D8" fill-rule="evenodd" xlink:href="#path-2"></use>
                                    <path stroke="#FF6F18" stroke-width="1.2" d="M1,0.6 C0.7790861,0.6 0.6,0.7790861 0.6,1 L0.6,29 C0.6,29.2209139 0.7790861,29.4 1,29.4 L19.9046484,29.4 C20.000958,29.4 20.0940341,29.3652514 20.1667807,29.3021368 L23.8483392,26.1080351 C23.9359081,26.0320608 23.9862069,25.921831 23.9862069,25.8058983 L23.9862069,1 C23.9862069,0.7790861 23.8071208,0.6 23.5862069,0.6 L1,0.6 Z"></path>
                                </g>
                            </g>
                            <polygon id="Triangle-2" stroke="#FF6F18" fill="#FFFFFF" stroke-linecap="round" stroke-linejoin="round" transform="translate(21.009827, 26.755564) rotate(-44.000000) translate(-21.009827, -26.755564) " points="20.933107 25.4346375 23.8136993 28.036925 18.2059542 28.0764902"></polygon>
                            <g id="Group" transform="translate(9.620690, 4.000000)" stroke="#FF6F18" stroke-width="1.2" stroke-linecap="round">
                                <path d="M0.852134613,1.83333333 L9.09391304,1.83333333" id="Line-4"></path>
                                <path d="M0.852134613,3.83333333 L5.92957066,3.83333333" id="Line-4-Copy-2"></path>
                            </g>
                            <g id="Group" transform="translate(4.275862, 12.000000)">
                                <path d="M6.1969622,1.83333333 L14.4387406,1.83333333" id="Line-4" stroke="#FF6F18" stroke-width="1.2" stroke-linecap="round"></path>
                                <path d="M6.1969622,3.83333333 L11.2743983,3.83333333" id="Line-4-Copy-2" stroke="#FF6F18" stroke-width="1.2" stroke-linecap="round"></path>
                                <g id="Rectangle-8">
                                    <use fill="#FFFFFF" fill-rule="evenodd" xlink:href="#path-3"></use>
                                    <rect stroke="#FF6F18" stroke-width="1" x="0.5" y="1.5" width="3.27586207" height="3" rx="1"></rect>
                                </g>
                            </g>
                            <g id="Group" transform="translate(4.275862, 20.000000)">
                                <path d="M6.1969622,1.83333333 L14.4387406,1.83333333" id="Line-4" stroke="#FF6F18" stroke-width="1.2" stroke-linecap="round"></path>
                                <path d="M6.1969622,3.83333333 L11.2743983,3.83333333" id="Line-4-Copy-2" stroke="#FF6F18" stroke-width="1.2" stroke-linecap="round"></path>
                                <g id="Rectangle-8">
                                    <use fill="#FFFFFF" fill-rule="evenodd" xlink:href="#path-4"></use>
                                    <rect stroke="#FF6F18" stroke-width="1" x="0.5" y="1.5" width="3.27586207" height="3" rx="1"></rect>
                                </g>
                            </g>
                        </g>
                    </g>
                    <g id="Combined-Shape">
                        <use fill="#FFE7D8" fill-rule="evenodd" xlink:href="#path-5"></use>
                        <path stroke="#FF6F18" stroke-width="1" d="M13.3275862,3 L13.3275862,3.5 L9.55172414,3.5 C9.27558176,3.5 9.05172414,3.72385763 9.05172414,4 L9.05172414,7 C9.05172414,7.27614237 9.27558176,7.5 9.55172414,7.5 L22.5172414,7.5 C22.7933838,7.5 23.0172414,7.27614237 23.0172414,7 L23.0172414,4 C23.0172414,3.72385763 22.7933838,3.5 22.5172414,3.5 L18.7413793,3.5 L18.7413793,3 C18.7413793,1.62701609 17.536638,0.5 16.0344828,0.5 C14.5323275,0.5 13.3275862,1.62701609 13.3275862,3 Z"></path>
                    </g>
                </g>
                <g id="Group-6" transform="translate(7.000000, 15.000000)" stroke="#FF6F18" stroke-width="1.5" stroke-linecap="round">
                    <path d="M0.108642578,0.835449219 L1.5,2.5" id="Line"></path>
                    <path d="M1.5,0.0568847656 L3.04248047,2.5" id="Line" transform="translate(2.271240, 1.278442) scale(-1, 1) translate(-2.271240, -1.278442) "></path>
                </g>
            </g>
        </g>
    </g>
</svg>