<?xml version="1.0" encoding="UTF-8"?>
<svg width="31px" height="37px" viewBox="0 0 31 37" version="1.1" xmlns="http://www.w3.org/2000/svg" xmlns:xlink="http://www.w3.org/1999/xlink">
    <!-- Generator: Sketch 47.1 (45422) - http://www.bohemiancoding.com/sketch -->
    <title>Group 2</title>
    <desc>Created with Sketch.</desc>
    <defs>
        <path d="M1.42905304,2.09567972 C6.11937049,0.698559907 10.8096879,6.77103988e-16 15.5000054,0 C20.1903227,0 24.8806401,0.698559885 29.5709575,2.09567966 L29.5709567,2.09568235 C30.4188017,2.34823266 31,3.12779081 31,4.01245058 L31,19.5429688 L31,27.4508611 L31,27.4508611 C31,27.8159963 30.8009878,28.1521045 30.4808327,28.3276735 L15.9808381,36.2792862 L15.9808381,36.2792862 C15.6813231,36.4435364 15.3186876,36.4435364 15.0191726,36.2792862 L0.519177997,28.3276735 L0.519177997,28.3276735 C0.199022976,28.1521045 1.07360327e-05,27.8159963 1.07360327e-05,27.4508611 L1.07360327e-05,19.5429688 L1.07360327e-05,4.0124608 L1.39257071e-07,4.0124608 C1.39257071e-07,3.1277951 0.581202297,2.34823173 1.42905304,2.09567972 Z" id="path-1"></path>
        <rect id="path-2" x="0" y="0" width="12" height="13" rx="1"></rect>
        <path d="M12,0 L8,0 L8,13 L12,13 C12.5522847,13 13,12.6936685 13,12.3157895 L13,0.684210526 C13,0.306331487 12.5522847,6.94152534e-17 12,0 Z" id="path-3"></path>
    </defs>
    <g id="Page-1" stroke="none" stroke-width="1" fill="none" fill-rule="evenodd">
        <g id="Mobile" transform="translate(-10.000000, -7.000000)">
            <g id="Group-2" transform="translate(10.000000, 7.000000)">
                <g id="Group-3">
                    <g id="Group">
                        <g id="Rectangle-11">
                            <use fill="#FFFFFF" fill-rule="evenodd" xlink:href="#path-1"></use>
                            <path stroke="#FF6F18" stroke-width="1.5" d="M1.64316104,2.81446882 C1.11325285,2.97231426 0.750004113,3.45954043 0.750010736,4.0124608 L0.750010736,27.4508611 C0.750010736,27.5421449 0.799763796,27.626172 0.879802551,27.6700642 L15.3797972,35.6216769 C15.4546759,35.6627395 15.5453348,35.6627395 15.6202136,35.6216769 L30.1202082,27.6700642 C30.2002469,27.626172 30.25,27.5421449 30.25,27.4508611 L30.25,4.01245058 C30.25,3.45953863 29.886751,2.97231405 29.3568495,2.81446875 C24.735284,1.43782833 20.1170212,0.75 15.5000054,0.75 C10.8829895,0.75 6.26472658,1.43782835 1.64316104,2.81446882 Z"></path>
                        </g>
                        <path d="M5.45208673,6.43111632 C8.80139271,5.47703877 12.1506987,5 15.5000047,5 C18.8493164,5 22.1986282,5.47704041 25.5479399,6.43112123 L25.5479346,6.43113968 C26.4072875,6.67593387 27,7.46106446 27,8.3546032 L27,19.4068029 L27,25.0789496 L27,25.0789496 C27,25.4450534 26.7999401,25.7818919 26.4784611,25.9570583 L15.9784658,31.6782625 L15.9784658,31.6782625 C15.6801935,31.8407842 15.3198159,31.8407842 15.0215436,31.6782625 L4.52154825,25.9570583 L4.52154825,25.9570583 C4.20006925,25.7818919 4.00000936,25.4450534 4.00000936,25.0789496 L4.00000936,19.4068029 L4.00000936,8.35460833 L3.99999918,8.35460833 C3.99999918,7.46105613 4.59272085,6.6759138 5.45208673,6.43111632 Z" id="Rectangle-11" fill="#FFE7D8"></path>
                    </g>
                </g>
                <g id="Group" transform="translate(9.000000, 10.000000)">
                    <g id="Rectangle-5-Copy">
                        <use fill="#FFE7D8" fill-rule="evenodd" xlink:href="#path-2"></use>
                        <rect stroke="#FF6F18" stroke-width="1.5" x="0.75" y="0.75" width="10.5" height="11.5" rx="1"></rect>
                    </g>
                    <g id="Rectangle-6">
                        <use fill="#FFFFFF" fill-rule="evenodd" xlink:href="#path-3"></use>
                        <path stroke="#FF6F18" stroke-width="1.5" d="M8.75,0.75 L8.75,12.25 L12,12.25 C12.1852287,12.25 12.25,12.2056828 12.25,12.3157895 L12.25,0.684210526 C12.25,0.794317217 12.1852287,0.75 12,0.75 L8.75,0.75 Z"></path>
                    </g>
                    <path d="M3.13636364,3.5 L5.86363636,3.5" id="Line-4" stroke="#FF6F18" stroke-linecap="round"></path>
                </g>
            </g>
        </g>
    </g>
</svg>