<?xml version="1.0" encoding="UTF-8"?>
<svg width="37px" height="33px" viewBox="0 0 37 33" version="1.1" xmlns="http://www.w3.org/2000/svg" xmlns:xlink="http://www.w3.org/1999/xlink">
    <!-- Generator: Sketch 47.1 (45422) - http://www.bohemiancoding.com/sketch -->
    <title>Group 2</title>
    <desc>Created with Sketch.</desc>
    <defs>
        <path d="M0.570306608,8.18779366 L17.1406132,0.302578243 L17.1406132,0.302578243 C17.6843266,0.0438445237 18.3156734,0.0438445237 18.8593868,0.302578243 L35.4296934,8.18779366 L35.4296934,8.18779366 C35.7780651,8.35357126 36,8.70496412 36,9.09076852 L36,31.2523913 L36,31.2523913 C36,31.8046761 35.5522847,32.2523913 35,32.2523913 L1,32.2523913 L1,32.2523913 C0.44771525,32.2523913 6.76353751e-17,31.8046761 0,31.2523913 L1.05179023e-15,9.09076852 L1.11022302e-15,9.09076852 C1.06297561e-15,8.70496412 0.221934942,8.35357126 0.570306608,8.18779366 Z" id="path-1"></path>
        <path d="M1,8 L9,8 L9,8 C10.1045695,8 11,8.8954305 11,10 L11,17 L11,17 C11,18.1045695 10.1045695,19 9,19 L1,19 L1,19 C0.44771525,19 6.76353751e-17,18.5522847 0,18 L0,9 L0,9 C-6.76353751e-17,8.44771525 0.44771525,8 1,8 Z" id="path-2"></path>
        <rect id="path-3" x="9" y="0" width="12" height="19" rx="1"></rect>
        <path d="M18,0 L22,0 L22,19 L18,19 L18,19 C17.4477153,19 17,18.5522847 17,18 L17,1 L17,1 C17,0.44771525 17.4477153,1.01453063e-16 18,0 Z" id="path-4"></path>
        <path d="M30.4176594,6.09139633 L35.5602375,8.45529404 L35.5602375,8.45529404 C35.9151456,8.61843526 36.1425781,8.97328942 36.1425781,9.36389771 L36.1425781,31.2523913 L36.1425781,31.2523913 C36.1425781,31.8046761 35.6948629,32.2523913 35.1425781,32.2523913 L30,32.2523913 L30,32.2523913 C29.4477153,32.2523913 29,31.8046761 29,31.2523913 L29,7 L29,7 C29,6.44771525 29.4477153,6 30,6 C30.1441807,6 30.2866563,6.03117793 30.4176594,6.09139633 Z" id="path-5"></path>
    </defs>
    <g id="Page-1" stroke="none" stroke-width="1" fill="none" fill-rule="evenodd">
        <g id="Mobile" transform="translate(-7.000000, -9.000000)">
            <g id="Group-2" transform="translate(7.000000, 9.000000)">
                <g id="Rectangle-4">
                    <use fill="#FFE7D8" fill-rule="evenodd" xlink:href="#path-1"></use>
                    <path stroke="#FF6F18" stroke-width="1.5" d="M0.892576652,8.8650248 C0.805483735,8.9064692 0.75,8.99431742 0.75,9.09076852 L0.75,31.2523913 C0.75,31.3904625 0.861928813,31.5023913 1,31.5023913 L35,31.5023913 C35.1380712,31.5023913 35.25,31.3904625 35.25,31.2523913 L35.25,9.09076852 C35.25,8.99431742 35.1945163,8.9064692 35.1074233,8.8650248 L18.5371167,0.979809385 C18.1972959,0.81810081 17.8027041,0.81810081 17.4628833,0.979809385 L0.892576652,8.8650248 Z"></path>
                </g>
                <g id="Group" transform="translate(4.000000, 13.000000)">
                    <g id="Rectangle-5">
                        <use fill="#FFE7D8" fill-rule="evenodd" xlink:href="#path-2"></use>
                        <path stroke="#FF6F18" stroke-width="1.5" d="M1,8.75 C0.861928813,8.75 0.75,8.86192881 0.75,9 L0.75,18 C0.75,18.1380712 0.861928813,18.25 1,18.25 L9,18.25 C9.69035594,18.25 10.25,17.6903559 10.25,17 L10.25,10 C10.25,9.30964406 9.69035594,8.75 9,8.75 L1,8.75 Z"></path>
                    </g>
                    <g id="Rectangle-5-Copy">
                        <use fill="#FFE7D8" fill-rule="evenodd" xlink:href="#path-3"></use>
                        <rect stroke="#FF6F18" stroke-width="1.5" x="9.75" y="0.75" width="10.5" height="17.5" rx="1"></rect>
                    </g>
                    <g id="Rectangle-6" transform="translate(19.500000, 9.500000) scale(-1, 1) translate(-19.500000, -9.500000) ">
                        <use fill="#FFFFFF" fill-rule="evenodd" xlink:href="#path-4"></use>
                        <path stroke="#FF6F18" stroke-width="1.5" d="M21.25,18.25 L21.25,0.75 L18,0.75 C17.8619288,0.75 17.75,0.861928813 17.75,1 L17.75,18 C17.75,18.1380712 17.8619288,18.25 18,18.25 L21.25,18.25 Z"></path>
                    </g>
                    <path d="M3.13636364,11.5 L5.86363636,11.5" id="Line-4" stroke="#FF6F18" stroke-linecap="round"></path>
                    <path d="M12.1363636,3.5 L14.8636364,3.5" id="Line-4" stroke="#FF6F18" stroke-linecap="round"></path>
                </g>
                <g id="Rectangle-4">
                    <use fill="#FFFFFF" fill-rule="evenodd" xlink:href="#path-5"></use>
                    <path stroke="#FF6F18" stroke-width="1.5" d="M30.1044149,6.77284908 C30.0716641,6.75779448 30.0360452,6.75 30,6.75 C29.8619288,6.75 29.75,6.86192881 29.75,7 L29.75,31.2523913 C29.75,31.3904625 29.8619288,31.5023913 30,31.5023913 L35.1425781,31.5023913 C35.2806493,31.5023913 35.3925781,31.3904625 35.3925781,31.2523913 L35.3925781,9.36389771 C35.3925781,9.26624564 35.33572,9.1775321 35.246993,9.13674679 L30.1044149,6.77284908 Z"></path>
                </g>
            </g>
        </g>
    </g>
</svg>