<?xml version="1.0" encoding="UTF-8"?>
<svg width="35px" height="30px" viewBox="0 0 35 30" version="1.1" xmlns="http://www.w3.org/2000/svg" xmlns:xlink="http://www.w3.org/1999/xlink">
    <!-- Generator: Sketch 49.3 (51167) - http://www.bohemiancoding.com/sketch -->
    <title>Group</title>
    <desc>Created with Sketch.</desc>
    <defs></defs>
    <g id="Page-1" stroke="none" stroke-width="1" fill="none" fill-rule="evenodd">
        <g id="iPad" transform="translate(-1.000000, -4.000000)">
            <g id="Group" transform="translate(1.000000, 5.000000)">
                <path d="M6,10 L29,10 C29.5522847,10 30,10.4477153 30,11 L30,27.53125 L5,27.53125 L5,11 C5,10.4477153 5.44771525,10 6,10 Z" id="Rectangle-path" stroke="#FF6F18" stroke-width="1.8"></path>
                <path d="M6.77428399,8.91704377e-16 L27.2463096,5.55111512e-15 C27.5975725,5.48658918e-15 27.9230793,0.184298834 28.1038025,0.485504245 L33.6664891,9.7566379 C33.8739092,10.102338 33.8534573,10.5387812 33.614618,10.8635694 C32.3680787,12.5586898 31.1215393,13.40625 29.875,13.40625 C28.5,13.40625 27.125,12.375 25.75,10.3125 C24.375,12.375 23,13.40625 21.625,13.40625 C20.25,13.40625 18.875,12.375 17.5,10.3125 C16.125,12.375 14.75,13.40625 13.375,13.40625 C12,13.40625 10.625,12.375 9.25,10.3125 C7.875,12.375 6.5,13.40625 5.125,13.40625 C3.86726143,13.40625 2.60952286,12.543392 1.35178429,10.817676 L1.35179605,10.8176675 C1.13160875,10.5155532 1.09832469,10.1158506 1.26551049,9.78147903 L5.8798568,0.552786405 C6.04924881,0.214002376 6.39551193,5.06967986e-16 6.77428399,1.11022302e-15 Z" id="Rectangle-path" stroke="#FF6F18" stroke-width="1.5" fill="#FFE7D8"></path>
                <path d="M10.25,17.2000008 L13.40625,17.2000008 C13.9585347,17.2000008 14.40625,17.647716 14.40625,18.2000008 L14.40625,26.5125008 C14.40625,27.0647855 13.9585347,27.5125008 13.40625,27.5125008 L10.25,27.5125008 C9.69771525,27.5125008 9.25,27.0647855 9.25,26.5125008 L9.25,18.2000008 C9.25,17.647716 9.69771525,17.2000008 10.25,17.2000008 Z" id="Rectangle-path" stroke="#FF6F18" stroke-width="1.5"></path>
                <rect id="Rectangle-path" stroke="#FF6F18" stroke-width="1.5" x="17.5" y="17.53125" width="9.28125" height="5.15625" rx="1"></rect>
                <path d="M1.515625,8.765625 L32.4697537,8.765625" id="Line" stroke="#FF6F18" stroke-width="1.5" stroke-linecap="round"></path>
                <path d="M1,28.5999992 C0.44771525,28.5999992 0,28.1970555 0,27.6999992 C0,27.202943 0.44771525,26.7999992 1,26.7999992 L34,26.7999992 C34.5522847,26.7999992 35,27.202943 35,27.6999992 C35,28.1970555 34.5522847,28.5999992 34,28.5999992 L1,28.5999992 Z" id="Line-2" fill="#FF6F18" fill-rule="nonzero"></path>
            </g>
        </g>
    </g>
</svg>