<?xml version="1.0" encoding="UTF-8"?>
<svg width="38px" height="35px" viewBox="0 0 38 35" version="1.1" xmlns="http://www.w3.org/2000/svg" xmlns:xlink="http://www.w3.org/1999/xlink">
    <!-- Generator: Sketch 47.1 (45422) - http://www.bohemiancoding.com/sketch -->
    <title>Group 2</title>
    <desc>Created with Sketch.</desc>
    <defs>
        <rect id="path-1" x="0" y="0" width="37" height="29" rx="2"></rect>
        <path d="M33.4411765,0 L37.4411765,0 L37.4411765,29 L33.4411765,29 L33.4411765,29 C32.336607,29 31.4411765,28.1045695 31.4411765,27 L31.4411765,2 L31.4411765,2 C31.4411765,0.8954305 32.336607,2.02906125e-16 33.4411765,0 Z" id="path-2"></path>
        <path d="M7,5 L26,5 L26,5 C27.1045695,5 28,5.8954305 28,7 L28,29 L5,29 L5,7 L5,7 C5,5.8954305 5.8954305,5 7,5 Z" id="path-3"></path>
    </defs>
    <g id="Page-1" stroke="none" stroke-width="1" fill="none" fill-rule="evenodd">
        <g id="Mobile" transform="translate(-7.000000, -7.000000)">
            <g id="Group-2" transform="translate(7.000000, 7.000000)">
                <g id="Group-4">
                    <g id="Group">
                        <g id="Rectangle-3">
                            <use fill="#FFE7D8" fill-rule="evenodd" xlink:href="#path-1"></use>
                            <rect stroke="#FF6F18" stroke-width="1.5" x="0.75" y="0.75" width="35.5" height="27.5" rx="2"></rect>
                        </g>
                        <g id="Rectangle-3" transform="translate(34.441176, 14.500000) scale(-1, 1) translate(-34.441176, -14.500000) ">
                            <use fill="#FFFFFF" fill-rule="evenodd" xlink:href="#path-2"></use>
                            <path stroke="#FF6F18" stroke-width="1.5" d="M36.6911765,28.25 L36.6911765,0.75 L33.4411765,0.75 C32.7508205,0.75 32.1911765,1.30964406 32.1911765,2 L32.1911765,27 C32.1911765,27.6903559 32.7508205,28.25 33.4411765,28.25 L36.6911765,28.25 Z"></path>
                        </g>
                        <path d="M9.52205882,33.4632353 L27.4861835,33.4632353" id="Line-3" stroke="#FF6F18" stroke-width="1.5" stroke-linecap="round"></path>
                        <path d="M14.6911765,33.7352941 L14.6911765,27.75 L14.6911765,27.75 M22.3088235,27.75 L22.3088235,33.7352941" id="Rectangle-4" stroke="#FF6F18" stroke-width="2"></path>
                    </g>
                </g>
                <g id="Rectangle-13">
                    <use fill="#FFE7D8" fill-rule="evenodd" xlink:href="#path-3"></use>
                    <path stroke="#FF6F18" stroke-width="1.5" d="M5.75,28.25 L27.25,28.25 L27.25,7 C27.25,6.30964406 26.6903559,5.75 26,5.75 L7,5.75 C6.30964406,5.75 5.75,6.30964406 5.75,7 L5.75,28.25 Z"></path>
                </g>
                <path d="M8.5,9.5 L24.5,9.5" id="Line" stroke="#FF6F18" stroke-width="1.5" stroke-linecap="round"></path>
                <path d="M8.5,12.5 L11.5,12.5" id="Line-2" stroke="#FFC19C" stroke-linecap="round" stroke-linejoin="round"></path>
                <path d="M8.5,14.5 L11.5,14.5" id="Line-2-Copy" stroke="#FFC19C" stroke-linecap="round" stroke-linejoin="round"></path>
                <path d="M8.5,16.5 L11.5,16.5" id="Line-2-Copy-2" stroke="#FFC19C" stroke-linecap="round" stroke-linejoin="round"></path>
                <path d="M8.5,18.5 L11.5,18.5" id="Line-2-Copy-3" stroke="#FFC19C" stroke-linecap="round" stroke-linejoin="round"></path>
                <path d="M8.5,20.5 L11.5,20.5" id="Line-2-Copy-4" stroke="#FFC19C" stroke-linecap="round" stroke-linejoin="round"></path>
                <rect id="Rectangle-14" stroke="#FFC19C" x="14.5" y="12.5" width="10" height="3" rx="1"></rect>
                <rect id="Rectangle-14-Copy" stroke="#FFC19C" x="14.5" y="17.5" width="10" height="3" rx="1"></rect>
                <rect id="Rectangle-14-Copy-2" stroke="#FFC19C" x="14.5" y="22.5" width="10" height="3" rx="1"></rect>
            </g>
        </g>
    </g>
</svg>