<?xml version="1.0" encoding="UTF-8"?>
<!-- Generator: Adobe Illustrator 16.0.0, SVG Export Plug-In . SVG Version: 6.00 Build 0)  -->
<!DOCTYPE svg PUBLIC "-//W3C//DTD SVG 1.1//EN" "http://www.w3.org/Graphics/SVG/1.1/DTD/svg11.dtd">
<svg version="1.1" id="Layer_1" xmlns="http://www.w3.org/2000/svg" xmlns:xlink="http://www.w3.org/1999/xlink" x="0px" y="0px" width="65.552px" height="65.526px" viewBox="0 0 65.552 65.526" enable-background="new 0 0 65.552 65.526" xml:space="preserve">
<path fill="#FF7F00" d="M7.827,7.843c-2.382,2.387-4.281,5.237-5.701,8.552C0.71,19.71,0,23.191,0,26.834  c0,3.643,0.71,7.122,2.126,10.439c1.419,3.315,3.319,6.166,5.701,8.552c2.382,2.385,5.23,4.287,8.54,5.709  c3.308,1.423,6.783,2.133,10.419,2.133l0.11-0.056l0.271,0.056c5.166,0,9.913-1.402,14.241-4.209l15.003,14.977  c0.689,0.728,1.408,1.091,2.155,1.091c0.745,0,1.592-0.363,2.537-1.091l3.22-3.171c0.797-0.875,1.207-1.648,1.228-2.323  c0.018-0.672-0.393-1.483-1.228-2.432L49.32,41.535c2.836-4.406,4.255-9.181,4.255-14.318l-0.055-0.272l0.055-0.109  c0-3.644-0.709-7.124-2.129-10.439c-1.419-3.314-3.318-6.165-5.701-8.552c-2.382-2.387-5.229-4.29-8.537-5.711  C33.898,0.711,30.422,0,26.786,0s-7.111,0.711-10.419,2.132C13.058,3.553,10.209,5.457,7.827,7.843z M42.008,17.98  c1.564,2.696,2.347,5.648,2.347,8.854c0,3.205-0.782,6.157-2.347,8.853c-1.565,2.697-3.691,4.827-6.382,6.395  c-2.693,1.568-5.64,2.348-8.84,2.348c-3.199,0-6.146-0.779-8.837-2.348c-2.693-1.567-4.819-3.697-6.384-6.395  C10,32.992,9.221,30.04,9.221,26.834c0-3.206,0.779-6.158,2.345-8.854c1.564-2.696,3.69-4.827,6.384-6.393  c2.691-1.566,5.638-2.35,8.837-2.35c3.2,0,6.146,0.784,8.84,2.35C38.316,13.153,40.442,15.284,42.008,17.98z"/>
</svg>