
<svg width="35px" height="36px" viewBox="0 0 35 36" version="1.1" xmlns="http://www.w3.org/2000/svg" xmlns:xlink="http://www.w3.org/1999/xlink">
    <!-- Generator: Sketch 48.1 (47250) - http://www.bohemiancoding.com/sketch -->
    <desc>Created with Sketch.</desc>
    <defs></defs>
    <g id="Page-1" stroke="none" stroke-width="1" fill="none" fill-rule="evenodd">
        <g id="Q3-Static" transform="translate(-341.000000, -1839.000000)">
            <g id="Group-88" transform="translate(330.000000, 1266.000000)">
                <g id="Group-2" transform="translate(0.000000, 336.000000)">
                    <g id="Group-17">
                        <g id="Group-54" transform="translate(0.000000, 225.000000)">
                            <g id="Group-53" transform="translate(11.000000, 12.000000)">
                                <ellipse id="Oval-8" fill="#3FABFF" cx="17.5" cy="18" rx="17.5" ry="18"></ellipse>
                                <g id="info" transform="translate(12.638889, 7.000000)" fill="#FFFFFF" fill-rule="nonzero">
                                    <path d="M9.15940972,19.5517143 L8.86168403,20.8035536 C7.96850694,21.1661607 7.25503472,21.4421429 6.72375,21.6318929 C6.19189236,21.8222321 5.57390625,21.9169107 4.86979167,21.9169107 C3.78850694,21.9169107 2.94746528,21.6444643 2.34762153,21.1033036 C1.74777778,20.5599821 1.44776042,19.8715 1.44776042,19.0362857 C1.44776042,18.7129643 1.46953125,18.3804107 1.51479167,18.0415714 C1.56043403,17.7023393 1.63300347,17.3202857 1.73230903,16.89325 L2.84854167,12.8295357 C2.94784722,12.4404107 3.03225694,12.0717143 3.09986111,11.7230536 C3.16842014,11.3765536 3.20145833,11.05775 3.20145833,10.7707679 C3.20145833,10.2518036 3.09699653,9.88880357 2.88902778,9.68471429 C2.68105903,9.48121429 2.28421875,9.37789286 1.69506944,9.37789286 C1.40651042,9.37789286 1.10993056,9.42542857 0.807621528,9.51735714 C0.503975694,9.60967857 0.244444444,9.69885714 0.0265451389,9.78175 L0.325034722,8.52892857 C1.05626736,8.22269643 1.75522569,7.96046429 2.42381944,7.74282143 C3.09241319,7.52458929 3.72414931,7.415375 4.32170139,7.415375 C5.39553819,7.415375 6.22416667,7.68232143 6.80605903,8.21621429 C7.38795139,8.7505 7.67880208,9.44310714 7.67880208,10.2965893 C7.67880208,10.4731786 7.65970486,10.7843214 7.61864583,11.2290357 C7.57854167,11.6747321 7.50387153,12.0831071 7.39501736,12.4545536 L6.28355903,16.5019643 C6.19246528,16.8270536 6.11053819,17.1986964 6.03930556,17.6168929 C5.96578125,18.0323393 5.93064236,18.3497679 5.93064236,18.5626964 C5.93064236,19.100125 6.04713542,19.4670536 6.28069444,19.6621071 C6.51597222,19.8571607 6.92121528,19.9541964 7.49680556,19.9541964 C7.76703125,19.9541964 8.07449653,19.9048929 8.41614583,19.8080536 C8.75684028,19.7112143 9.00529514,19.6261607 9.15940972,19.5517143 Z M9.44128472,2.55946429 C9.44128472,3.26464286 9.18289931,3.86689286 8.66364583,4.36208929 C8.14572917,4.85905357 7.52163194,5.10773214 6.79154514,5.10773214 C6.05916667,5.10773214 5.43354167,4.85905357 4.90970486,4.36208929 C4.38682292,3.86669643 4.12480903,3.26464286 4.12480903,2.55946429 C4.12480903,1.85566071 4.38682292,1.25242857 4.90970486,0.750946429 C5.43258681,0.25025 6.05935764,0 6.79154514,0 C7.52144097,0 8.14572917,0.250839286 8.66364583,0.750946429 C9.18328125,1.25242857 9.44128472,1.85585714 9.44128472,2.55946429 Z" id="Shape"></path>
                                </g>
                            </g>
                        </g>
                    </g>
                </g>
            </g>
        </g>
    </g>
</svg>