<?xml version="1.0" encoding="utf-8"?>
<!-- Generator: Adobe Illustrator 16.0.0, SVG Export Plug-In . SVG Version: 6.00 Build 0)  -->
<!DOCTYPE svg PUBLIC "-//W3C//DTD SVG 1.1//EN" "http://www.w3.org/Graphics/SVG/1.1/DTD/svg11.dtd">
<svg version="1.1" id="Layer_1" xmlns="http://www.w3.org/2000/svg" xmlns:xlink="http://www.w3.org/1999/xlink" x="0px" y="0px"
	 width="40px" height="40px" viewBox="0 0 40 40" enable-background="new 0 0 40 40" xml:space="preserve">
<g>
	<g>
		<path fill-rule="evenodd" clip-rule="evenodd" fill="#6D95AD" d="M20,0C8.954,0,0,8.954,0,20s8.954,20,20,20s20-8.954,20-20
			S31.046,0,20,0z M20,38.7C9.672,38.7,1.3,30.328,1.3,20S9.672,1.3,20,1.3S38.7,9.673,38.7,20C38.7,30.328,30.328,38.7,20,38.7z
			 M22.646,10.646l-9,9l0,0l0,0l9,9l0.707-0.707l-8.293-8.293l8.293-8.293L22.646,10.646z"/>
	</g>
</g>
</svg>
