
<svg width="275px" height="198px" viewBox="0 0 275 198" version="1.1" xmlns="http://www.w3.org/2000/svg" xmlns:xlink="http://www.w3.org/1999/xlink">
    <!-- Generator: Sketch 48.1 (47250) - http://www.bohemiancoding.com/sketch -->
    <desc>Created with Sketch.</desc>
    <defs>
        <rect id="path-1" x="44.8509934" y="0" width="47.4139073" height="78.307165" rx="2"></rect>
        <rect id="path-2" x="12.8145695" y="19.2558602" width="34.5993377" height="30.8093764" rx="2"></rect>
        <rect id="path-3" x="12.8145695" y="19.2558602" width="34.5993377" height="10.2697921" rx="2"></rect>
        <rect id="path-4" x="0" y="0" width="47.4139073" height="30.8093764" rx="2"></rect>
        <rect id="path-5" x="38.4437086" y="0" width="17.9403974" height="78.307165" rx="2"></rect>
        <rect id="path-6" x="0" y="0" width="62.3784295" height="40.5332659" rx="2"></rect>
        <rect id="path-7" x="6.40728477" y="0" width="47.4139073" height="59.0513047" rx="2"></rect>
        <rect id="path-8" x="0" y="0" width="17.9403974" height="59.0513047" rx="2"></rect>
        <rect id="path-9" x="6.40728477" y="0" width="47.4139073" height="59.0513047" rx="2"></rect>
        <rect id="path-10" x="0" y="0" width="17.9403974" height="59.0513047" rx="2"></rect>
        <rect id="path-11" x="6.40728477" y="0" width="47.4139073" height="59.0513047" rx="2"></rect>
        <rect id="path-12" x="0" y="0" width="17.9403974" height="59.0513047" rx="2"></rect>
        <rect id="path-13" x="6.40728477" y="0" width="47.4139073" height="48.7815126" rx="2"></rect>
        <rect id="path-14" x="0" y="0" width="17.9403974" height="48.7815126" rx="2"></rect>
        <rect id="path-15" x="0" y="0" width="66.6357616" height="48.7815126" rx="2"></rect>
        <rect id="path-16" x="0" y="0" width="103.798013" height="30.8093764" rx="2"></rect>
    </defs>
    <g id="Page-1" stroke="none" stroke-width="1" fill="none" fill-rule="evenodd">
        <g id="Q3-Static" transform="translate(-330.000000, -1972.000000)">
            <g id="Group-88" transform="translate(330.000000, 1266.000000)">
                <g id="Group-11" transform="translate(0.000000, 701.000000)">
                    <g id="Group-10" transform="translate(0.000000, 5.000000)">
                        <g id="Group-82" opacity="0.406080163">
                            <g id="Group-9" transform="translate(0.000000, 95.000000)">
                                <g id="Rectangle-5-Copy">
                                    <use fill="#DFF1FF" fill-rule="evenodd" xlink:href="#path-1"></use>
                                    <rect stroke="#3FABFF" stroke-width="2" x="45.8509934" y="1" width="45.4139073" height="76.307165" rx="2"></rect>
                                </g>
                                <g id="Rectangle-5-Copy">
                                    <use fill="#DFF1FF" fill-rule="evenodd" xlink:href="#path-2"></use>
                                    <rect stroke="#3FABFF" stroke-width="2" x="13.8145695" y="20.2558602" width="32.5993377" height="28.8093764" rx="2"></rect>
                                </g>
                                <g id="Rectangle-5-Copy">
                                    <use fill="#FFFFFF" fill-rule="evenodd" xlink:href="#path-3"></use>
                                    <rect stroke="#3FABFF" stroke-width="2" x="13.8145695" y="20.2558602" width="32.5993377" height="8.26979213" rx="2"></rect>
                                </g>
                                <g id="Group-69" transform="translate(0.000000, 47.497789)">
                                    <g id="Rectangle-5">
                                        <use fill="#DFF1FF" fill-rule="evenodd" xlink:href="#path-4"></use>
                                        <rect stroke="#3FABFF" stroke-width="2" x="1" y="1" width="45.4139073" height="28.8093764" rx="2"></rect>
                                    </g>
                                    <path d="M7.04801325,23.7488943 L19.8625828,23.7488943" id="Line-4" stroke="#3FABFF" stroke-width="1.5" stroke-linecap="round"></path>
                                    <path d="M7.04801325,19.8977222 L19.8625828,19.8977222" id="Line-4" stroke="#3FABFF" stroke-width="1.5" stroke-linecap="round"></path>
                                </g>
                                <path d="M72.4023179,9.62793012 L85.2168874,9.62793012" id="Line-4" stroke="#3FABFF" stroke-width="1.5" stroke-linecap="round"></path>
                                <path d="M77.5281457,13.4791022 L85.2168874,13.4791022" id="Line-4" stroke="#3FABFF" stroke-width="1.5" stroke-linecap="round"></path>
                                <g id="Rectangle-6">
                                    <use fill="#FFFFFF" fill-rule="evenodd" xlink:href="#path-5"></use>
                                    <rect stroke="#3FABFF" stroke-width="2" x="39.4437086" y="1" width="15.9403974" height="76.307165" rx="2"></rect>
                                </g>
                            </g>
                            <g id="Group-69" transform="translate(115.000000, 0.000000)">
                                <g id="Rectangle-5">
                                    <use fill="#DFF1FF" fill-rule="evenodd" xlink:href="#path-6"></use>
                                    <rect stroke="#3FABFF" stroke-width="2" x="1" y="1" width="60.3784295" height="38.5332659" rx="2"></rect>
                                </g>
                            </g>
                            <g id="Group-75" transform="translate(130.500000, 12.000000) scale(-1, 1) translate(-130.500000, -12.000000) translate(123.000000, 8.000000)" stroke="#3FABFF" stroke-linecap="round" stroke-width="1.5">
                                <path d="M0.640728477,1.92558602 L13.455298,1.92558602" id="Line-4"></path>
                                <path d="M0.640728477,5.77675807 L8.3294702,5.77675807" id="Line-4"></path>
                            </g>
                            <g id="Group-79" transform="translate(29.000000, 39.000000)">
                                <g id="Group-71" transform="translate(27.315789, 30.000000) scale(-1, 1) translate(-27.315789, -30.000000) translate(0.315789, 0.000000)">
                                    <g id="Rectangle-5-Copy">
                                        <use fill="#DFF1FF" fill-rule="evenodd" xlink:href="#path-7"></use>
                                        <rect stroke="#3FABFF" stroke-width="2" x="7.40728477" y="1" width="45.4139073" height="57.0513047" rx="2"></rect>
                                    </g>
                                    <g id="Rectangle-6">
                                        <use fill="#FFFFFF" fill-rule="evenodd" xlink:href="#path-8"></use>
                                        <rect stroke="#3FABFF" stroke-width="2" x="1" y="1" width="15.9403974" height="57.0513047" rx="2"></rect>
                                    </g>
                                </g>
                                <g id="Group-75" transform="translate(21.500000, 11.000000) scale(-1, 1) translate(-21.500000, -11.000000) translate(14.000000, 7.000000)" stroke="#3FABFF" stroke-linecap="round" stroke-width="1.5">
                                    <path d="M0.640728477,1.92558602 L13.455298,1.92558602" id="Line-4"></path>
                                    <path d="M0.640728477,5.77675807 L8.3294702,5.77675807" id="Line-4"></path>
                                </g>
                            </g>
                            <g id="Group-79-Copy" transform="translate(239.500000, 69.000000) scale(-1, -1) translate(-239.500000, -69.000000) translate(212.000000, 39.000000)">
                                <g id="Group-71" transform="translate(27.315789, 30.000000) scale(-1, 1) translate(-27.315789, -30.000000) translate(0.315789, 0.000000)">
                                    <g id="Rectangle-5-Copy">
                                        <use fill="#DFF1FF" fill-rule="evenodd" xlink:href="#path-9"></use>
                                        <rect stroke="#3FABFF" stroke-width="2" x="7.40728477" y="1" width="45.4139073" height="57.0513047" rx="2"></rect>
                                    </g>
                                    <g id="Rectangle-6">
                                        <use fill="#FFFFFF" fill-rule="evenodd" xlink:href="#path-10"></use>
                                        <rect stroke="#3FABFF" stroke-width="2" x="1" y="1" width="15.9403974" height="57.0513047" rx="2"></rect>
                                    </g>
                                </g>
                                <g id="Group-75" transform="translate(21.500000, 11.000000) scale(-1, 1) translate(-21.500000, -11.000000) translate(14.000000, 7.000000)" stroke="#3FABFF" stroke-linecap="round" stroke-width="1.5">
                                    <path d="M0.640728477,1.92558602 L13.455298,1.92558602" id="Line-4"></path>
                                    <path d="M0.640728477,5.77675807 L8.3294702,5.77675807" id="Line-4"></path>
                                </g>
                            </g>
                            <g id="Group-79-Copy-2" transform="translate(185.500000, 53.000000) scale(-1, -1) rotate(-270.000000) translate(-185.500000, -53.000000) translate(158.000000, 23.000000)">
                                <g id="Group-71" transform="translate(27.315789, 30.000000) scale(-1, 1) translate(-27.315789, -30.000000) translate(0.315789, 0.000000)">
                                    <g id="Rectangle-5-Copy">
                                        <use fill="#DFF1FF" fill-rule="evenodd" xlink:href="#path-11"></use>
                                        <rect stroke="#3FABFF" stroke-width="2" x="7.40728477" y="1" width="45.4139073" height="57.0513047" rx="2"></rect>
                                    </g>
                                    <g id="Rectangle-6">
                                        <use fill="#FFFFFF" fill-rule="evenodd" xlink:href="#path-12"></use>
                                        <rect stroke="#3FABFF" stroke-width="2" x="1" y="1" width="15.9403974" height="57.0513047" rx="2"></rect>
                                    </g>
                                </g>
                                <g id="Group-75" transform="translate(21.500000, 11.000000) scale(-1, 1) translate(-21.500000, -11.000000) translate(14.000000, 7.000000)" stroke="#3FABFF" stroke-linecap="round" stroke-width="1.5">
                                    <path d="M0.640728477,1.92558602 L13.455298,1.92558602" id="Line-4"></path>
                                    <path d="M0.640728477,5.77675807 L8.3294702,5.77675807" id="Line-4"></path>
                                </g>
                            </g>
                            <g id="Group-80" transform="translate(81.000000, 26.000000)">
                                <g id="Group-70" transform="translate(0.620077, 0.525652)">
                                    <g id="Rectangle-5-Copy">
                                        <use fill="#DFF1FF" fill-rule="evenodd" xlink:href="#path-13"></use>
                                        <rect stroke="#3FABFF" stroke-width="2" x="7.40728477" y="1" width="45.4139073" height="46.7815126" rx="2"></rect>
                                    </g>
                                    <g id="Rectangle-6">
                                        <use fill="#FFFFFF" fill-rule="evenodd" xlink:href="#path-14"></use>
                                        <rect stroke="#3FABFF" stroke-width="2" x="1" y="1" width="15.9403974" height="46.7815126" rx="2"></rect>
                                    </g>
                                </g>
                                <g id="Group-75-Copy" transform="translate(37.971070, 13.511720) scale(-1, 1) translate(-37.971070, -13.511720) translate(30.471070, 9.511720)" stroke="#3FABFF" stroke-linecap="round" stroke-width="1.5">
                                    <path d="M0.640728477,1.92558602 L13.455298,1.92558602" id="Line-4"></path>
                                    <path d="M0.640728477,5.77675807 L8.3294702,5.77675807" id="Line-4"></path>
                                </g>
                            </g>
                            <g id="Group-81" transform="translate(171.000000, 97.000000)">
                                <g id="Group-77" transform="translate(52.000000, 52.500000) scale(-1, 1) translate(-52.000000, -52.500000) translate(18.000000, 28.000000)">
                                    <g id="Group-73" transform="translate(34.110143, 24.500000) scale(-1, 1) translate(-34.110143, -24.500000) translate(0.610143, 0.000000)">
                                        <g id="Group-72">
                                            <g id="Rectangle-5" transform="translate(33.317881, 24.390756) scale(1, -1) translate(-33.317881, -24.390756) ">
                                                <use fill="#DFF1FF" fill-rule="evenodd" xlink:href="#path-15"></use>
                                                <rect stroke="#3FABFF" stroke-width="2" x="1" y="1" width="64.6357616" height="46.7815126" rx="2"></rect>
                                            </g>
                                        </g>
                                    </g>
                                    <g id="Group-74" transform="translate(15.259150, 11.702344) scale(-1, 1) translate(-15.259150, -11.702344) translate(7.759150, 7.702344)" stroke="#3FABFF" stroke-linecap="round" stroke-width="1.5">
                                        <path d="M0.640728477,1.92558602 L13.455298,1.92558602" id="Line-4"></path>
                                        <path d="M5.76655629,5.77675807 L13.455298,5.77675807" id="Line-4"></path>
                                    </g>
                                </g>
                                <g id="Group-69" transform="translate(52.000000, 15.500000) scale(-1, 1) translate(-52.000000, -15.500000) ">
                                    <g id="Rectangle-5">
                                        <use fill="#DFF1FF" fill-rule="evenodd" xlink:href="#path-16"></use>
                                        <rect stroke="#3FABFF" stroke-width="2" x="1" y="1" width="101.798013" height="28.8093764" rx="2"></rect>
                                    </g>
                                    <path d="M7.04801325,23.7488943 L19.8625828,23.7488943" id="Line-4" stroke="#3FABFF" stroke-width="1.5" stroke-linecap="round"></path>
                                    <path d="M7.04801325,19.8977222 L19.8625828,19.8977222" id="Line-4" stroke="#3FABFF" stroke-width="1.5" stroke-linecap="round"></path>
                                </g>
                            </g>
                        </g>
                        <g id="Group-78" transform="translate(64.000000, 38.000000)">
                            <circle id="Oval-13" stroke="#3FABFF" stroke-width="2" fill="#DFF1FF" cx="79.5" cy="79.5" r="79.5"></circle>
                            <circle id="Oval-13" stroke="#3FABFF" stroke-width="2" fill="#FFFFFF" cx="80" cy="80" r="63"></circle>
                            <circle id="Oval-13" stroke="#3FABFF" stroke-width="2" fill="#DFF1FF" cx="80" cy="80" r="46"></circle>
                            <circle id="Oval-13" stroke="#3FABFF" stroke-width="2" fill="#FFFFFF" cx="80.5" cy="80.5" r="29.5"></circle>
                            <polygon id="Star" fill="#3FABFF" points="80.5 89.1317845 67.2748318 98.7028824 72.2906851 83.1673681 59.1012284 73.5471176 75.4263643 73.5167396 80.5 58 85.5736357 73.5167396 101.898772 73.5471176 88.7093149 83.1673681 93.7251682 98.7028824"></polygon>
                        </g>
                    </g>
                </g>
            </g>
        </g>
    </g>
</svg>