
<svg width="257px" height="207px" viewBox="0 0 257 207" version="1.1" xmlns="http://www.w3.org/2000/svg" xmlns:xlink="http://www.w3.org/1999/xlink">
    <!-- Generator: Sketch 48.1 (47250) - http://www.bohemiancoding.com/sketch -->
    <desc>Created with Sketch.</desc>
    <defs>
        <rect id="path-1" x="92" y="-25" width="10" height="160" rx="2"></rect>
        <rect id="path-2" x="92" y="-19" width="10" height="160" rx="2"></rect>
        <rect id="path-3" x="0" y="0" width="19" height="165" rx="2"></rect>
        <rect id="path-4" x="175" y="0" width="32" height="165" rx="2"></rect>
        <rect id="path-5" x="75" y="-75" width="10" height="160" rx="2"></rect>
        <rect id="path-6" x="75" y="-69" width="10" height="160" rx="2"></rect>
        <rect id="path-7" x="5.73137389" y="0" width="42.4121668" height="42.7207031" rx="2"></rect>
        <rect id="path-8" x="0" y="0" width="16.0478469" height="42.7207031" rx="2"></rect>
        <rect id="path-9" x="5.73137389" y="0" width="42.4121668" height="42.7207031" rx="2"></rect>
        <rect id="path-10" x="0" y="0" width="16.0478469" height="42.7207031" rx="2"></rect>
        <rect id="path-11" x="0.97163363" y="0.135461605" width="30.949419" height="28.0483175" rx="2"></rect>
        <rect id="path-12" x="0.97163363" y="0.135461605" width="30.949419" height="9.34943917" rx="2"></rect>
        <rect id="path-13" x="94" y="137" width="42" height="28" rx="2"></rect>
        <rect id="path-14" x="105" y="111" width="31" height="28" rx="2"></rect>
        <rect id="path-15" x="105" y="111" width="31" height="9" rx="2"></rect>
        <rect id="path-16" x="53" y="94" width="42" height="71" rx="2"></rect>
        <rect id="path-17" x="48" y="94" width="16" height="71" rx="2"></rect>
        <rect id="path-18" x="229" y="70" width="9" height="42" rx="4.5"></rect>
        <mask id="mask-19" maskContentUnits="userSpaceOnUse" maskUnits="objectBoundingBox" x="0" y="0" width="9" height="42" fill="white">
            <use xlink:href="#path-18"></use>
        </mask>
        <path d="M213.5,29 L220.5,29 C222.985281,29 225,31.0147186 225,33.5 L225,95 C225,96.1045695 224.104569,97 223,97 L211,97 C209.895431,97 209,96.1045695 209,95 L209,33.5 C209,31.0147186 211.014719,29 213.5,29 Z" id="path-20"></path>
        <path d="M227,49 L227,49 C231.418278,49 235,52.581722 235,57 L235,128 C235,129.104569 234.104569,130 233,130 L221,130 C219.895431,130 219,129.104569 219,128 L219,57 C219,52.581722 222.581722,49 227,49 Z" id="path-21"></path>
        <path d="M207,114 L207,114 C220.254834,114 231,124.745166 231,138 L231,165 L183,165 L183,138 C183,124.745166 193.745166,114 207,114 Z" id="path-22"></path>
        <path d="M207,114 L207,114 C220.254834,114 231,124.745166 231,138 L231,165 L207,165 L207,114 Z" id="path-23"></path>
        <path d="M145.08027,33.998555 L147.192521,33.998555 C148.297091,33.998555 149.192521,34.8939855 149.192521,35.998555 C149.192521,36.0621393 149.189489,36.1256873 149.183435,36.1889827 L147.717549,51.5147637 C147.687142,51.8326656 147.733304,52.153227 147.852174,52.4496325 L153.866899,67.4475496 C154.249064,68.4004906 153.786358,69.4828079 152.833417,69.8649728 C152.613387,69.953213 152.378511,69.998555 152.141447,69.998555 L150.484092,69.998555 C149.803978,69.998555 149.170475,69.6529326 148.802365,69.0810495 L138.31933,52.7949585 C137.99485,52.2908571 137.913616,51.6677837 138.098001,51.0973386 L143.177214,35.3834296 C143.444049,34.5579037 144.21269,33.998555 145.08027,33.998555 Z" id="path-24"></path>
        <path d="M145.08027,55.001445 L147.192521,55.001445 C148.297091,55.001445 149.192521,55.8968755 149.192521,57.001445 C149.192521,57.0650292 149.189489,57.1285773 149.183435,57.1918727 L147.717549,72.5176537 C147.687142,72.8355556 147.733304,73.156117 147.852174,73.4525224 L153.866899,88.4504395 C154.249064,89.4033806 153.786358,90.4856978 152.833417,90.8678628 C152.613387,90.956103 152.378511,91.001445 152.141447,91.001445 L150.484092,91.001445 C149.803978,91.001445 149.170475,90.6558226 148.802365,90.0839395 L138.31933,73.7978484 C137.99485,73.293747 137.913616,72.6706737 138.098001,72.1002285 L143.177214,56.3863196 C143.444049,55.5607936 144.21269,55.001445 145.08027,55.001445 Z" id="path-25"></path>
    </defs>
    <g id="Page-1" stroke="none" stroke-width="1" fill="none" fill-rule="evenodd">
        <g id="Q3-Static" transform="translate(-346.000000, -1325.000000)">
            <path d="M495.5,1325.5 L495.5,1362.5" id="Line-7" stroke="#FCFCFC" opacity="0.250113225" stroke-linecap="square"></path>
            <g id="Group-88" transform="translate(330.000000, 1266.000000)">
                <g id="Group-8" transform="translate(17.000000, 64.000000)">
                    <g id="Group-15" transform="translate(18.000000, 0.000000)" opacity="0.202955163">
                        <g id="Group-67">
                            <g id="Rectangle-10-Copy" transform="translate(97.000000, 55.000000) rotate(-270.000000) translate(-97.000000, -55.000000) ">
                                <use fill="#DFF1FF" fill-rule="evenodd" xlink:href="#path-1"></use>
                                <rect stroke="#3FABFF" stroke-width="2" x="93" y="-24" width="8" height="158" rx="2"></rect>
                            </g>
                            <g id="Rectangle-10-Copy" transform="translate(97.000000, 61.000000) rotate(-270.000000) translate(-97.000000, -61.000000) ">
                                <use fill="#FFFFFF" fill-rule="evenodd" xlink:href="#path-2"></use>
                                <rect stroke="#3FABFF" stroke-width="2" x="93" y="-18" width="8" height="158" rx="2"></rect>
                            </g>
                            <g id="Group-57">
                                <g id="Rectangle-10">
                                    <use fill="#DFF1FF" fill-rule="evenodd" xlink:href="#path-3"></use>
                                    <rect stroke="#3FABFF" stroke-width="2" x="1" y="1" width="17" height="163" rx="2"></rect>
                                </g>
                                <g id="Rectangle-10-Copy">
                                    <use fill="#DFF1FF" fill-rule="evenodd" xlink:href="#path-4"></use>
                                    <rect stroke="#3FABFF" stroke-width="2" x="176" y="1" width="30" height="163" rx="2"></rect>
                                </g>
                                <g id="Group-15-Copy" transform="translate(17.000000, 129.000000)">
                                    <g id="Rectangle-10-Copy" transform="translate(80.000000, 5.000000) rotate(-270.000000) translate(-80.000000, -5.000000) ">
                                        <use fill="#DFF1FF" fill-rule="evenodd" xlink:href="#path-5"></use>
                                        <rect stroke="#3FABFF" stroke-width="2" x="76" y="-74" width="8" height="158" rx="2"></rect>
                                    </g>
                                    <g id="Rectangle-10-Copy" transform="translate(80.000000, 11.000000) rotate(-270.000000) translate(-80.000000, -11.000000) ">
                                        <use fill="#FFFFFF" fill-rule="evenodd" xlink:href="#path-6"></use>
                                        <rect stroke="#3FABFF" stroke-width="2" x="76" y="-68" width="8" height="158" rx="2"></rect>
                                    </g>
                                </g>
                                <g id="Group-48" transform="translate(32.000000, 9.000000)">
                                    <g id="Group-65">
                                        <g id="Rectangle-5-Copy">
                                            <use fill="#DFF1FF" fill-rule="evenodd" xlink:href="#path-7"></use>
                                            <rect stroke="#3FABFF" stroke-width="2" x="6.73137389" y="1" width="40.4121668" height="40.7207031" rx="2"></rect>
                                        </g>
                                        <path d="M30.3762816,8.76509922 L41.8390294,8.76509922" id="Line-4" stroke="#3FABFF" stroke-width="1.5" stroke-linecap="round"></path>
                                        <path d="M34.9613807,12.2711389 L41.8390294,12.2711389" id="Line-4" stroke="#3FABFF" stroke-width="1.5" stroke-linecap="round"></path>
                                        <g id="Rectangle-6">
                                            <use fill="#FFFFFF" fill-rule="evenodd" xlink:href="#path-8"></use>
                                            <rect stroke="#3FABFF" stroke-width="2" x="1" y="1" width="14.0478469" height="40.7207031" rx="2"></rect>
                                        </g>
                                    </g>
                                </g>
                                <g id="Group-48-Copy-2" transform="translate(113.000000, 9.000000)">
                                    <g id="Group-65">
                                        <g id="Rectangle-5-Copy">
                                            <use fill="#DFF1FF" fill-rule="evenodd" xlink:href="#path-9"></use>
                                            <rect stroke="#3FABFF" stroke-width="2" x="6.73137389" y="1" width="40.4121668" height="40.7207031" rx="2"></rect>
                                        </g>
                                        <path d="M21.5731374,8.75301984 L33.0358852,8.75301984" id="Line-4" stroke="#3FABFF" stroke-width="1.5" stroke-linecap="round"></path>
                                        <path d="M21.5731374,12.7530198 L28.4507861,12.7530198" id="Line-4" stroke="#3FABFF" stroke-width="1.5" stroke-linecap="round"></path>
                                        <g id="Rectangle-6">
                                            <use fill="#FFFFFF" fill-rule="evenodd" xlink:href="#path-10"></use>
                                            <rect stroke="#3FABFF" stroke-width="2" x="1" y="1" width="14.0478469" height="40.7207031" rx="2"></rect>
                                        </g>
                                    </g>
                                </g>
                                <g id="Group-49" transform="translate(97.000000, 24.000000)">
                                    <g id="Rectangle-5-Copy">
                                        <use fill="#DFF1FF" fill-rule="evenodd" xlink:href="#path-11"></use>
                                        <rect stroke="#3FABFF" stroke-width="2" x="1.97163363" y="1.1354616" width="28.949419" height="26.0483175" rx="2"></rect>
                                    </g>
                                    <g id="Rectangle-5-Copy">
                                        <use fill="#FFFFFF" fill-rule="evenodd" xlink:href="#path-12"></use>
                                        <rect stroke="#3FABFF" stroke-width="2" x="1.97163363" y="1.1354616" width="28.949419" height="7.34943917" rx="2"></rect>
                                    </g>
                                </g>
                            </g>
                        </g>
                    </g>
                    <g id="Rectangle-5">
                        <use fill="#DFF1FF" fill-rule="evenodd" xlink:href="#path-13"></use>
                        <rect stroke="#3FABFF" stroke-width="2" x="95" y="138" width="40" height="26" rx="2"></rect>
                    </g>
                    <g id="Rectangle-5-Copy">
                        <use fill="#DFF1FF" fill-rule="evenodd" xlink:href="#path-14"></use>
                        <rect stroke="#3FABFF" stroke-width="2" x="106" y="112" width="29" height="26" rx="2"></rect>
                    </g>
                    <g id="Rectangle-5-Copy">
                        <use fill="#FFFFFF" fill-rule="evenodd" xlink:href="#path-15"></use>
                        <rect stroke="#3FABFF" stroke-width="2" x="106" y="112" width="29" height="7" rx="2"></rect>
                    </g>
                    <g id="Rectangle-5-Copy">
                        <use fill="#DFF1FF" fill-rule="evenodd" xlink:href="#path-16"></use>
                        <rect stroke="#3FABFF" stroke-width="2" x="54" y="95" width="40" height="69" rx="2"></rect>
                    </g>
                    <path d="M77.5909091,103 L89.4090909,103" id="Line-4" stroke="#3FABFF" stroke-width="1.5" stroke-linecap="round"></path>
                    <path d="M82.5714286,106 L89.4285714,106" id="Line-4" stroke="#3FABFF" stroke-width="1.5" stroke-linecap="round"></path>
                    <g id="Rectangle-6">
                        <use fill="#FFFFFF" fill-rule="evenodd" xlink:href="#path-17"></use>
                        <rect stroke="#3FABFF" stroke-width="2" x="49" y="95" width="14" height="69" rx="2"></rect>
                    </g>
                    <path d="M115.590909,159 L127.409091,159" id="Line-4" stroke="#3FABFF" stroke-width="1.5" stroke-linecap="round"></path>
                    <path d="M115.590909,155 L127.409091,155" id="Line-4" stroke="#3FABFF" stroke-width="1.5" stroke-linecap="round"></path>
                    <g id="Group-52" transform="translate(9.000000, 173.000000)">
                        <circle id="Oval-9" stroke="#3FABFF" stroke-width="2" cx="9.5" cy="9.73684211" r="9.05263158"></circle>
                        <circle id="Oval-9" fill="#3FABFF" cx="9.5" cy="9.73684211" r="2.58646617"></circle>
                    </g>
                    <g id="Group-50" transform="translate(227.000000, 173.000000)">
                        <circle id="Oval-9" stroke="#3FABFF" stroke-width="2" cx="9.5" cy="9.73684211" r="9.05263158"></circle>
                        <circle id="Oval-9" fill="#3FABFF" cx="9.5" cy="9.73684211" r="2.58646617"></circle>
                    </g>
                    <circle id="Oval-9" stroke="#3FABFF" stroke-width="2" cx="63" cy="183" r="9"></circle>
                    <circle id="Oval-9" fill="#3FABFF" cx="63.5" cy="182.5" r="2.5"></circle>
                    <circle id="Oval-9" stroke="#3FABFF" stroke-width="2" cx="106" cy="183" r="9"></circle>
                    <circle id="Oval-9" fill="#3FABFF" cx="106.5" cy="182.5" r="2.5"></circle>
                    <circle id="Oval-9" stroke="#3FABFF" stroke-width="2" cx="149" cy="183" r="9"></circle>
                    <circle id="Oval-9" fill="#3FABFF" cx="149.5" cy="182.5" r="2.5"></circle>
                    <circle id="Oval-9" stroke="#3FABFF" stroke-width="2" cx="192" cy="183" r="9"></circle>
                    <circle id="Oval-9" fill="#3FABFF" cx="192.5" cy="182.5" r="2.5"></circle>
                    <use id="Rectangle-12" stroke="#3FABFF" mask="url(#mask-19)" stroke-width="3" fill="#FFFFFF" stroke-dasharray="3,1" transform="translate(233.500000, 91.000000) rotate(34.000000) translate(-233.500000, -91.000000) " xlink:href="#path-18"></use>
                    <rect id="Rectangle-13" stroke="#3FABFF" stroke-width="1.5" x="163.75" y="58.75" width="24.5" height="7.5"></rect>
                    <g id="Rectangle-12" transform="translate(217.000000, 63.000000) rotate(90.000000) translate(-217.000000, -63.000000) ">
                        <use fill="#FFFFFF" fill-rule="evenodd" xlink:href="#path-20"></use>
                        <path stroke="#3FABFF" stroke-width="2" d="M213.5,30 C211.567003,30 210,31.5670034 210,33.5 L210,95 C210,95.5522847 210.447715,96 211,96 L223,96 C223.552285,96 224,95.5522847 224,95 L224,33.5 C224,31.5670034 222.432997,30 220.5,30 L213.5,30 Z"></path>
                    </g>
                    <g id="Rectangle-12" transform="translate(227.000000, 89.500000) rotate(35.000000) translate(-227.000000, -89.500000) ">
                        <use fill="#FFFFFF" fill-rule="evenodd" xlink:href="#path-21"></use>
                        <path stroke="#3FABFF" stroke-width="2" d="M227,50 C223.134007,50 220,53.1340068 220,57 L220,128 C220,128.552285 220.447715,129 221,129 L233,129 C233.552285,129 234,128.552285 234,128 L234,57 C234,53.1340068 230.865993,50 227,50 Z"></path>
                    </g>
                    <circle id="Oval-9" fill="#3FABFF" cx="205" cy="119" r="3"></circle>
                    <g id="Rectangle-11">
                        <use fill="#DFF1FF" fill-rule="evenodd" xlink:href="#path-22"></use>
                        <path stroke="#3FABFF" stroke-width="2" d="M184,164 L230,164 L230,138 C230,125.297451 219.702549,115 207,115 C194.297451,115 184,125.297451 184,138 L184,164 Z"></path>
                    </g>
                    <g id="Rectangle-11">
                        <use fill="#FFFFFF" fill-rule="evenodd" xlink:href="#path-23"></use>
                        <path stroke="#3FABFF" stroke-width="2" d="M208,115.021348 L208,164 L230,164 L230,138 C230,125.632506 220.238616,115.544905 208,115.021348 Z"></path>
                    </g>
                    <circle id="Oval-9" stroke="#3FABFF" stroke-width="2" fill="#FFFFFF" cx="208" cy="118" r="9"></circle>
                    <circle id="Oval-9" fill="#3FABFF" cx="208.5" cy="118.5" r="2.5"></circle>
                    <circle id="Oval-9" fill="#3FABFF" cx="244" cy="63" r="1"></circle>
                    <path d="M183.666667,62.5 L199,62.5" id="Line-11" stroke="#3FABFF" stroke-width="2" stroke-linecap="round"></path>
                    <path d="M212,110 L218,101" id="Line-11" stroke="#3FABFF" stroke-width="2" stroke-linecap="round"></path>
                    <g id="Rectangle-14" transform="translate(146.001012, 51.998555) rotate(125.000000) translate(-146.001012, -51.998555) ">
                        <use fill="#FFFFFF" fill-rule="evenodd" xlink:href="#path-24"></use>
                        <path stroke="#3FABFF" stroke-width="1.5" d="M145.08027,34.748555 C144.538032,34.748555 144.057632,35.0981479 143.89086,35.6141017 L138.811647,51.3280106 C138.696406,51.6845388 138.747178,52.0739597 138.949978,52.389023 L149.433013,68.6751141 C149.663082,69.032541 150.059021,69.248555 150.484092,69.248555 L152.141447,69.248555 C152.282871,69.248555 152.42299,69.2215056 152.554252,69.1688646 C153.122743,68.9408784 153.398777,68.2952061 153.170791,67.726715 L147.156065,52.7287979 C146.99262,52.3212404 146.929147,51.8804685 146.970956,51.4433533 L148.436842,36.1175723 C148.440626,36.0780127 148.442521,36.0382952 148.442521,35.998555 C148.442521,35.3081991 147.882877,34.748555 147.192521,34.748555 L145.08027,34.748555 Z"></path>
                    </g>
                    <g id="Rectangle-14" transform="translate(146.001012, 73.001445) scale(1, -1) rotate(125.000000) translate(-146.001012, -73.001445) ">
                        <use fill="#FFFFFF" fill-rule="evenodd" xlink:href="#path-25"></use>
                        <path stroke="#3FABFF" stroke-width="1.5" d="M145.08027,55.751445 C144.538032,55.751445 144.057632,56.1010379 143.89086,56.6169916 L138.811647,72.3309005 C138.696406,72.6874288 138.747178,73.0768496 138.949978,73.391913 L149.433013,89.678004 C149.663082,90.035431 150.059021,90.251445 150.484092,90.251445 L152.141447,90.251445 C152.282871,90.251445 152.42299,90.2243955 152.554252,90.1717545 C153.122743,89.9437684 153.398777,89.298096 153.170791,88.729605 L147.156065,73.7316879 C146.99262,73.3241303 146.929147,72.8833584 146.970956,72.4462433 L148.436842,57.1204623 C148.440626,57.0809027 148.442521,57.0411851 148.442521,57.001445 C148.442521,56.311089 147.882877,55.751445 147.192521,55.751445 L145.08027,55.751445 Z"></path>
                    </g>
                    <ellipse id="Oval-10" stroke="#3FABFF" stroke-width="1.5" fill="#DFF1FF" cx="164" cy="63.5" rx="7" ry="7.5"></ellipse>
                    <path d="M17,164 L237,164" id="Line-12" stroke="#3FABFF" stroke-width="2" stroke-linecap="square"></path>
                    <path d="M17,201 L237,201" id="Line-12" stroke="#3FABFF" stroke-width="2" stroke-linecap="square"></path>
                    <circle id="Oval-14" stroke="#3FABFF" stroke-width="2" stroke-dasharray="2,1" cx="236.5" cy="182.5" r="18.5"></circle>
                    <circle id="Oval-14-Copy" stroke="#3FABFF" stroke-width="2" stroke-dasharray="2,1" cx="18.5" cy="182.5" r="18.5"></circle>
                </g>
            </g>
        </g>
    </g>
</svg>