
<svg width="266px" height="279px" viewBox="0 0 266 279" version="1.1" xmlns="http://www.w3.org/2000/svg" xmlns:xlink="http://www.w3.org/1999/xlink">
    <!-- Generator: Sketch 48.1 (47250) - http://www.bohemiancoding.com/sketch -->
    <desc>Created with Sketch.</desc>
    <defs>
        <path d="M610,227 L672,227 L666.427578,238.851027 C666.097826,239.55232 665.392624,240 664.617674,240 L617.382326,240 C616.607376,240 615.902174,239.55232 615.572422,238.851027 L610,227 Z" id="path-1"></path>
    </defs>
    <g id="Page-1" stroke="none" stroke-width="1" fill="none" fill-rule="evenodd">
        <g id="Q3-Static" transform="translate(-845.000000, -1618.000000)">
            <g id="Group-88" transform="translate(330.000000, 1266.000000)">
                <g id="Group-2" transform="translate(0.000000, 336.000000)">
                    <path d="M713.754888,44.000838 C713.754888,44.000838 666.37763,43.4354067 645.514616,71.6800443 C603.908261,128.02123 563,214.646645 563,214.646645 L574.076412,223.323323 L585.166121,232 C585.166121,232 659.084218,171.222871 703.509539,117.082828 C725.788685,89.9421277 713.754888,44.000838 713.754888,44.000838 Z" id="Path" stroke="#3FABFF" stroke-width="2" fill="#DFF1FF" transform="translate(640.000000, 138.000000) rotate(-38.000000) translate(-640.000000, -138.000000) "></path>
                    <path d="M657.915467,35.8397837 C653.315552,41.4258584 646.265062,45 638.361127,45 C631.313733,45 624.944832,42.1585354 620.386555,37.5829812 C629.979714,25.5540669 639.880195,18.0034044 639.880195,18.0034044 C639.880195,18.0034044 648.895173,24.7987278 657.915467,35.8397837 Z" id="Combined-Shape" stroke="#3FABFF" stroke-width="2" fill="#FFFFFF"></path>
                    <g id="Rectangle-17" transform="translate(641.000000, 233.500000) scale(1, -1) translate(-641.000000, -233.500000) ">
                        <use fill="#FFFFFF" fill-rule="evenodd" xlink:href="#path-1"></use>
                        <path stroke="#3FABFF" stroke-width="2" d="M611.575237,228 L616.477374,238.425514 C616.64225,238.77616 616.994851,239 617.382326,239 L664.617674,239 C665.005149,239 665.35775,238.77616 665.522626,238.425514 L670.424763,228 L611.575237,228 Z"></path>
                    </g>
                    <path d="M687.480459,195.999474 L670.394594,219.108592 C669.983905,219.664061 669.888944,220.392144 670.143423,221.034369 L683.109178,253.75585 C683.516079,254.782741 684.678397,255.285342 685.705288,254.87844 C686.497267,254.564622 687.003539,253.783578 686.966652,252.93249 L685.748578,224.82777 C685.727274,224.336215 685.88791,223.854056 686.199768,223.473498 L695.00374,212.730054 L687.480459,195.999474 Z" id="Path-3" stroke="#3FABFF" stroke-width="2" fill="#DFF1FF" transform="translate(682.503249, 225.509549) scale(-1, 1) rotate(16.000000) translate(-682.503249, -225.509549) "></path>
                    <path d="M603.473961,195.999474 L586.388096,219.108592 C585.977407,219.664061 585.882446,220.392144 586.136925,221.034369 L599.102679,253.75585 C599.509581,254.782741 600.671899,255.285342 601.69879,254.87844 C602.490769,254.564622 602.997041,253.783578 602.960154,252.93249 L601.74208,224.82777 C601.720775,224.336215 601.881412,223.854056 602.19327,223.473498 L610.997242,212.730054 L603.473961,195.999474 Z" id="Path-3" stroke="#3FABFF" stroke-width="2" fill="#DFF1FF" transform="translate(598.496751, 225.509549) rotate(16.000000) translate(-598.496751, -225.509549) "></path>
                    <path d="M633,226.608696 L633,209" id="Line-13-Copy-2" stroke="#3FABFF" stroke-width="2" stroke-linecap="round"></path>
                    <path d="M649,226.608696 L649,209" id="Line-13-Copy-2" stroke="#3FABFF" stroke-width="2" stroke-linecap="round"></path>
                    <g id="Group-66" transform="translate(624.000000, 81.000000)" stroke="#3FABFF" stroke-width="2">
                        <g id="Group-16" fill="#FFFFFF">
                            <ellipse id="Oval-11" cx="16" cy="15.5" rx="16" ry="15.5"></ellipse>
                            <path d="M16,5 C9.92486775,5 5,9.85383601 5,15.8413462 M16,26.6826923 C22.0751322,26.6826923 27,21.8288563 27,15.8413462" id="Oval-11"></path>
                        </g>
                        <g id="Group-16-Copy" transform="translate(5.000000, 45.000000)" fill="#FFFFFF">
                            <ellipse id="Oval-11" cx="11" cy="10.5" rx="11" ry="10.5"></ellipse>
                        </g>
                        <path d="M17,45 L17,32.3725506" id="Line-13-Copy" stroke-linecap="round"></path>
                    </g>
                    <path d="M641,227 L641,186.632232" id="Line-13-Copy" stroke="#3FABFF" stroke-width="2" stroke-linecap="round"></path>
                    <path d="M641,61.0325013 L641,45.6322322" id="Line-13-Copy" stroke="#3FABFF" stroke-width="2" stroke-linecap="round"></path>
                    <polygon id="Path-4" fill="#DFF1FF" points="614 240 620.566713 268.210582 631.197047 254.105291 639.652002 295 653.297281 244.895466 666 262.325542 666 240"></polygon>
                    <polyline id="Path-5" stroke="#3FABFF" stroke-width="2" points="621 268.168961 630.93299 254 639 294"></polyline>
                    <polyline id="Path-5" stroke="#3FABFF" stroke-width="2" transform="translate(652.500000, 270.000000) scale(-1, 1) translate(-652.500000, -270.000000) " points="640 261.567693 651.421003 246 665 294"></polyline>
                    <path d="M738.852425,187.537357 C738.135588,191.220106 734.892434,194 731,194 C726.900233,194 723.520756,190.916072 723.054813,186.941462 C721.50095,187.62311 719.792858,188 718,188 C717.432335,188 716.873168,187.962216 716.324704,187.888938 C714.611048,190.372427 711.745594,192 708.5,192 C706.322402,192 704.315927,191.267331 702.713641,190.035058 C701.704727,191.236379 700.19154,192 698.5,192 C695.462434,192 693,189.537566 693,186.5 C693,185.978204 693.072663,185.473379 693.208423,184.995093 C688.649007,184.841399 685,181.096835 685,176.5 C685,171.80558 688.80558,168 693.5,168 C694.537142,168 695.530899,168.185752 696.449819,168.525803 C697.44941,165.880854 700.005056,164 703,164 C703.618122,164 704.217532,164.080117 704.788412,164.230534 C704.28473,163.264043 704,162.165273 704,161 C704,157.134007 707.134007,154 711,154 C712.173538,154 713.279628,154.288783 714.251081,154.799163 C715.516552,148.081692 721.41483,143 728.5,143 C733.789144,143 738.416861,145.831904 740.949612,150.062173 C742.438809,148.777106 744.378653,148 746.5,148 C750.118605,148 753.209078,150.261201 754.435516,153.4477 C756.741331,151.901764 759.515357,151 762.5,151 C770.508129,151 777,157.491871 777,165.5 C777,166.210647 776.948877,166.909354 776.850108,167.592643 C778.802491,169.653646 780,172.436976 780,175.5 C780,181.851275 774.851275,187 768.5,187 C766.902486,187 765.381053,186.674263 763.998494,186.085584 C762.377161,189.586807 758.956976,192 755,192 C751.551454,192 748.510618,190.167107 746.712897,187.378498 C745.379675,187.782674 743.965217,188 742.5,188 C741.240157,188 740.017841,187.839328 738.852425,187.537357 Z" id="Combined-Shape" stroke="#30A0FF" stroke-width="2" fill="#DAEFFF" opacity="0.389662591" transform="translate(732.500000, 168.500000) scale(-1, 1) translate(-732.500000, -168.500000) "></path>
                    <path d="M586.531234,130.928297 C585.569275,133.315283 583.231381,135 580.5,135 C579.79749,135 579.12101,134.888553 578.487274,134.682375 C577.03406,136.692242 574.669752,138 572,138 C567.690042,138 564.176123,134.591746 564.006418,130.32341 C562.268372,132.560527 559.552289,134 556.5,134 C555.117941,134 553.804813,133.704876 552.620197,133.17421 C550.43212,136.103546 546.93753,138 543,138 C538.320884,138 534.267265,135.321928 532.28831,131.414952 C532.261834,131.406349 532.235398,131.397656 532.209002,131.388875 C530.567551,133.581205 527.949464,135 525,135 C520.029437,135 516,130.970563 516,126 C516,122.161494 518.403022,118.884243 521.786767,117.590549 C520.09407,116.312862 519,114.284198 519,112 C519,108.134007 522.134007,105 526,105 C528.646138,105 530.949346,106.46826 532.139375,108.63453 C533.350902,108.223127 534.649394,108 536,108 C537.789856,108 539.488189,108.39186 541.013887,109.094469 C541.004663,108.897472 541,108.699281 541,108.5 C541,101.596441 546.596441,96 553.5,96 C556.569018,96 559.379711,97.1060245 561.555228,98.941224 C563.174889,96.5622632 565.905001,95 569,95 C573.970563,95 578,99.0294373 578,104 C578,104.417686 577.971547,104.828727 577.916472,105.23129 C582.107584,107.249487 585,111.536964 585,116.5 C585,117.205995 584.941471,117.89832 584.829001,118.572387 C585.643801,118.204662 586.548,118 587.5,118 C591.089851,118 594,120.910149 594,124.5 C594,128.089851 591.089851,131 587.5,131 C587.170788,131 586.847293,130.975526 586.531234,130.928297 Z" id="Combined-Shape" stroke="#30A0FF" stroke-width="2" fill="#DAEFFF" opacity="0.389662591"></path>
                </g>
            </g>
        </g>
    </g>
</svg>